/* XPM */
static char *_e498a03bd294bc6e62f3117e30b332aLJdlnZ7OrGdGtnsg[] = {
/* columns rows colors chars-per-pixel */
"64 64 117 2 ",
"   c black",
".  c #0F0606",
"X  c #140A09",
"o  c #140A0A",
"O  c #140C09",
"+  c #1D100D",
"@  c #1A140C",
"#  c #191A0D",
"$  c #210F0E",
"%  c #210F0F",
"&  c #21130F",
"*  c #24100F",
"=  c #21140F",
"-  c #21180F",
";  c #211010",
":  c #241111",
">  c #2B1313",
",  c #2C1313",
"<  c #2D1313",
"1  c #281513",
"2  c #2C1613",
"3  c #2C1414",
"4  c #2F1616",
"5  c #2F1716",
"6  c #281813",
"7  c #2C1914",
"8  c #2F1816",
"9  c #2E1916",
"0  c #2E1B16",
"q  c #2C1E15",
"w  c #2A2014",
"e  c #292A15",
"r  c #283215",
"t  c #2A3017",
"y  c #273C16",
"u  c #005400",
"i  c #005701",
"p  c #015A01",
"a  c #035D03",
"s  c #035E03",
"d  c #035E04",
"f  c #045E04",
"g  c #036004",
"h  c #056205",
"j  c #066506",
"k  c #076707",
"l  c #076708",
"z  c #076808",
"x  c #076908",
"c  c #086908",
"v  c #096A09",
"b  c #0A6F0B",
"n  c #0B6F0B",
"m  c #0B6E0C",
"M  c #0B6F0C",
"N  c #0B700C",
"B  c #0C720D",
"V  c #0D740E",
"C  c #0E780F",
"Z  c #0F7810",
"A  c #0F7910",
"S  c #107C12",
"D  c #127F13",
"F  c #128214",
"G  c #138315",
"H  c #158517",
"J  c #158817",
"K  c #168918",
"L  c #178B19",
"P  c #178D19",
"I  c #188D1A",
"U  c #19901B",
"Y  c #1A921C",
"T  c #1D9620",
"R  c #209824",
"E  c #269F2B",
"W  c #33AC3C",
"Q  c #39B343",
"!  c #40BA4B",
"~  c #40BA4C",
"^  c #42BD4F",
"/  c #46C153",
"(  c #4BC75A",
")  c #4CC75B",
"_  c #4DC75B",
"`  c #52CD62",
"'  c #54CF65",
"]  c #57D369",
"[  c #58D46A",
"{  c #59D46B",
"}  c #5CD76E",
"|  c #5BD96F",
" . c #5FDC73",
".. c #62DE75",
"X. c #66E27A",
"o. c #66E37C",
"O. c #68E47E",
"+. c #68E57F",
"@. c #6AE781",
"#. c #6BE881",
"$. c #6BE882",
"%. c #6CEB83",
"&. c #6DEA84",
"*. c #70ED87",
"=. c #72EF8A",
"-. c #73F18B",
";. c #73F18D",
":. c #74F28D",
">. c #75F28E",
",. c #7AF793",
"<. c #7AF994",
"1. c #7AF895",
"2. c #7DFA97",
"3. c #7EFB99",
"4. c #7FFB9A",
"5. c #7DFC99",
"6. c #7FFC9A",
/* pixels */
"Y Y Y Y Y Y Y Y Y Y Y Y Y Y Y Y Y Y Y Y Y Y Y Y Y Y Y Y Y Y Y Y Y Y Y Y Y Y Y Y Y Y Y Y Y Y Y Y Y Y Y Y Y Y Y Y Y Y Y Y Y Y Y Y ",
"Y Y Y Y Y Y Y Y Y Y Y Y Y Y Y Y Y Y Y Y Y Y Y Y Y Y Y Y Y Y Y Y Y Y Y Y Y Y Y Y Y Y Y Y Y Y Y Y Y Y Y Y Y Y Y Y Y Y Y Y Y Y Y Y ",
"Y Y Y Y Y Y Y Y Y Y Y Y Y Y Y Y Y Y Y Y Y Y Y Y Y Y Y Y Y Y Y Y Y Y Y Y Y Y Y Y Y Y Y Q { _ Y Y Y Y Y Y Y Y Y Y Y Y Y Y Y Y Y Y ",
"Y Y Y Y Y / ` Y Y ' / Y Y Y Y Y Y Y Y / ` Y Y Y Y Y Y Y Y Y Y Y Y Y Y Y Y Y / ` Y O.2.4.>./ Y Y Y Y / ` Y Y Y R ` _ Y Y Y Y Y Y ",
"Y Y Y Y Y _ 5.{ ..5._ Y Y Y Y Y Y Y Y _ 5.{ Y ~  ._ Y Y Y Y Y Y Y Y Y Y Y Y _ 5.*.3.&.Q Y Y Y Y Y Y _ 3.{ Y W =.5./ Y Y Y Y Y Y ",
"Y Y Y Y Y Y { 5.3. .Y Y Y Y Y Y Y Y Y Y { 5.2.5.1.^ Y Y Y Y Y Y Y Y Y Y Y Y U %.3.%.Y Y Y Y Y Y Y Y Y { 5.X.5.-.W Y Y Y Y Y Y Y ",
"Y Y Y Y Y Y Y X.o.Y Y Y Y Y Y Y Y Y Y Y Y @.&.~ U Y Y Y Y Y Y Y Y Y Y Y Y Y U / #./ Y Y Y Y Y Y Y Y Y Y ] X.` R Y Y Y Y Y Y Y Y ",
"Y Y Y Y Y Y Y Y Y Y Y Y Y Y Y Y Y Y Y Y Y Y Y Y Y Y Y Y Y Y Y Y Y Y Y Y Y Y Y Y Y Y Y Y Y Y Y Y Y Y Y Y Y Y Y Y Y Y Y Y Y Y Y Y ",
"Y Y Y Y Y Y Y Y Y Y Y Y Y Y Y Y Y Y Y Y Y Y Y Y Y Y Y Y Y Y Y Y Y Y Y Y Y Y Y Y Y Y Y Y Y Y Y Y Y Y Y Y Y Y Y Y Y Y Y Y Y Y Y Y ",
"Y Y Y Y Y Y Y Y Y Y Y Y Y Y Y Y Y Y Y Y Y Y Y Y Y Y Y Y Y Y Y Y Y Y Y Y Y Y Y Y Y Y Y Y Y Y Y Y Y Y Y Y Y Y Y Y Y Y Y Y Y Y Y Y ",
"Y Y Y Y Y Y Y Y Y Y Y Y Y Y Y Y Y Y Y Y Y Y Y Y Y Y Y Y Y Y Y Y Y Y Y Y Y Y Y Y Y Y Y Y Y Y Y Y Y Y Y Y Y Y Y Y Y Y Y Y Y Y Y Y ",
"Y Y Y Y Y Y Y Y Y Y Y Y Y Y Y Y Y Y Y Y Y Y Y Y Y Y C N Y Y Y Y Y Y Y Y Y Y Y Y Y Y Y Y Y Y Y Y Y Y Y Y Y Y Y Y Y Y Y Y Y Y Y Y ",
"Y Y Y Y Y Y Y Y Y Y Y Y Y Y Y Y Y Y Y Y Y Y Y Y Y Y B i p j j A Y Y Y Y Y Y Y Y Y Y Y Y Y Y U Y Y Y Y Y Y Y Y Y Y Y Y Y Y Y Y Y ",
"Y Y Y Y Y Y Y Y Y Y Y C m Y Y P N V Y Y Y Y Y Y Y Y Y g i s l V Y Y Y Y Y Y Y Y Y Y Y Y Y V n L H P P Y Y Y Y D v m Y Y Y Y Y Y ",
"Y Y Y Y Y Y Y Y Y Y Y B i z G d i C Y Y Y Y Y Y Y Y Y Y b C Y Y Y Y Y Y Y Y Y Y Y Y Y Y Y C p s N F G D K l i p p B Y Y Y Y Y Y ",
"Y Y Y Y Y Y Y Y Y Y Y Y z i i s G Y Y Y Y Y Y Y Y Y Y Y Y Y Y Y Y Y Y Y Y Y Y Y Y Y Y Y Y Y D p p h H H D i s B I Y Y Y Y Y Y Y ",
"Y Y Y Y Y Y Y Y Y Y Y Y Y h j I Y Y Y Y Y Y Y Y Y Y Y Y Y Y Y Y Y Y Y Y Y Y Y Y Y Y Y Y Y Y Y I j i s D p p D I Y Y Y Y Y Y Y Y ",
"Y Y Y Y Y Y Y Y Y Y Y Y Y Y Y Y Y Y Y Y Y Y Y Y Y Y Y Y Y Y Y Y Y Y Y Y Y Y Y Y Y Y Y Y Y Y Y Y U G s i u D K Y Y Y Y Y Y Y Y Y ",
"Y Y Y Y Y Y Y Y Y Y Y Y Y Y Y Y Y Y Y Y Y Y Y Y Y Y Y Y Y Y Y Y Y Y Y Y Y Y Y Y Y Y Y Y Y Y Y Y Y Y I h h Y Y Y Y Y Y Y Y Y Y Y ",
"Y Y Y Y Y Y Y Y Y Y Y Y Y Y Y Y Y Y Y Y 9 9 9 9 9 t Y Y Y Y Y Y Y Y 9 4 : 2 5 5 9 4 9 $ $ Y Y Y Y Y Y Y Y Y Y Y Y Y Y Y Y Y Y Y ",
"Y Y Y Y Y Y Y Y Y Y Y Y Y Y Y Y Y Y Y Y 9 5 9 9 9 4 6 6 1 > 4 4 4 4 O     X ; & $ % ;     Y Y Y Y Y Y Y Y Y Y Y Y Y Y Y Y Y Y Y ",
"Y Y Y Y Y Y Y Y Y Y Y Y Y Y Y Y Q | ( Y 2 2         O O O X & $ = $ .                     : : # Y Y Y Y Y Y Y Y Y Y Y Y Y Y Y Y ",
"Y Y Y Y Y Y Y Y Y Y / ` Y Y X.1.3.3./ 2 < 5                                                   : @ Y Y Y Y Y Y Y Y Y Y Y Y Y Y Y ",
"Y Y Y Y Y Y Y Y Y Y _ 5.] { 5.%.^ U Y 4 < 2                                                   $ & Y Y Y Y Y ` / Y Y Y Y Y Y Y Y ",
"Y Y Y Y Y Y Y Y Y Y Y { 3.3.] Y Y Y Y 4 >                                                     X : W Y Y Y { 5._ Y Y Y Y Y Y Y Y ",
"Y Y Y Y Y Y Y Y Y Y Y Y X.X.Y Y Y Y Y 2 4                                                     + < 5.-.@.>.5.{ Y Y Y Y Y Y Y Y Y ",
"Y Y Y Y Y Y Y Y Y Y Y Y Y Y Y Y Y Y Y 4 4 4 , 2                                               > < O.>.@.-.O.Y Y Y Y Y Y Y Y Y Y ",
"Y Y Y Y Y Y Y Y Y Y Y Y Y Y Y Y Y Y U q , > 4 2 4 2                                       : > 4 4 Y Y Y Y Y Y Y Y Y Y Y Y Y Y Y ",
"Y Y Y Y Y Y Y Y Y Y Y Y Y Y Y Y Y Y Y Y e 9 w 2 < > < 2 9 &       $ &             : : & > < > 4 w Y Y Y Y Y Y Y Y Y Y Y Y Y Y Y ",
"Y Y Y Y Y Y Y Y Y Y Y Y Y Y Y Y Y Y Y Y Y U Y r 9 2 > < 2 & $ $ - & &         ; + & 2 4 > > 2 2 Y Y Y Y Y Y Y Y Y Y Y Y Y Y Y Y ",
"Y Y Y Y Y Y Y Y Y Y Y Y Y Y Y Y Y Y Y Y Y Y Y Y Y Y y 2 2 2 4 9 9 9 & = &     = + ; 2 4 + @ Y Y Y Y Y Y Y Y Y Y Y Y Y Y Y Y Y N ",
"Y Y Y Y Y Y Y C V Y Y Y Y Y Y Y Y Y Y C V Y Y Y Y Y Y Y Y Y Y Y Y U Y Y Y Y Y Y Y Y Y Y Y Y Y Y Y Y Y Y Y Y C b Y Y Y Y Y Y f i ",
"Y Y Y Y Y Y Y B i G Y I B V Y Y Y Y Y m i D Y Y Y Y D v V Y Y Y Y Y Y Y C N Y Y Y Y Y Y Y Y Y Y Y Y Y Y Y Y B i j Y Y Y Y l i h ",
"Y Y Y Y Y Y Y I s s D s i A Y Y Y Y Y Y h p K Y h i i p C Y Y Y Y Y Y Y V p v Y Y Y Y Y Y Y Y Y Y Y Y Y Y Y Y j i f Y L h i j Y ",
"Y Y Y Y Y Y Y Y G i i d G Y Y Y Y Y Y Y K p f l i s V Y Y Y Y Y Y Y Y Y Y v p h Y v h V Y Y Y Y Y Y Y Y Y Y Y Y s i h p i h Y Y ",
"Y Y Y Y Y Y Y Y Y h j I Y Y Y Y Y Y Y Y U G i p h H Y Y Y Y Y Y Y Y Y Y Y Y s i p i i V Y Y Y Y Y Y Y Y Y Y Y Y Y f i p D Y Y Y ",
"Y Y Y Y Y Y Y Y Y Y Y Y Y Y Y Y Y Y Y Y Y Y j j Y Y Y Y Y Y Y Y Y Y Y Y Y Y Y p i i D Y Y Y Y Y Y Y Y Y Y Y Y Y Y V h V Y Y Y Y ",
"Y Y Y Y Y Y Y Y Y Y Y Y Y Y Y Y Y Y Y Y Y Y Y Y Y Y Y Y Y Y Y Y Y Y Y Y Y Y Y h s V Y Y Y Y Y Y Y Y Y Y Y Y Y Y Y Y Y Y Y Y Y Y ",
"Y Y Y Y Y Y Y Y Y Y Y Y Y Y Y Y Y Y Y Y Y Y Y Y Y Y Y Y Y Y Y Y Y Y Y Y Y Y Y Y Y Y Y Y Y Y Y Y Y Y Y Y Y Y Y Y Y Y Y Y Y Y Y Y ",
"Y Y Y Y Y Y Y Y Y Y Y Y Y Y Y Y Y Y Y Y Y Y Y Y Y Y Y Y Y Y Y Y Y Y Y Y Y Y Y Y Y Y Y Y Y Y Y Y Y Y Y Y Y Y Y Y Y Y Y Y Y Y Y Y ",
"Y Y Y Y Y Y Y Y Y Y Y Y Y Y Y Y Y Y Y Y Y Y Y Y Y Y Y Y Y Y Y Y Y Y Y Y Y Y Y Y Y Y Y Y Y Y Y Y Y Y Y Y Y Y Y Y Y Y R ` _ Y Y Y ",
"Y Y Y Y Y Y Y Y Y Y Y Y Y Y Y Y Y Y Y Y Y Y _ / Y Y Y Y Y Y Y Y Y Y Y Y Y Y Y Y Y Y Y Y Y Y Y / _ Y Y Y Y Y Y Y Y W =.3./ Y Y Y ",
"_ ` Y Y R ` _ Y Y Y Y _  .Q T Y Y Y Y Y Y Q 3.' Y Y Y / ` Y Y Y Y Y Y R ` _ Y Y Y Y Y Y Y Y Y ` 6.W Y Y Y Y Y ~ %.3.=.W Y Y Y Y ",
"' 3. .W =.5./ Y Y Y Y / ,.3.3.X.T Y Y Y T >.>.T Y Y Y _ 5.{ Y Y Y Y W =.3./ Y Y Y Y Y Y Y Y Y R =.=.R Y E O.2.5.2.O.R Y Y Y Y Y ",
"Y ..6.5.=.W Y Y Y Y Y Y Y _ =.5.=.W Y Q &.5.Q Y Y Y Y Y { 5.@.Y Q #.5.>.W Y Y Y Y Y Y Y Y Y Y Y W 4.{ { 3.5.O.~ Y Y Y Y Y Y Y Y ",
"Y Y O.O.R Y Y Y Y Y Y Y Y Y Y ^ ;.3.3.6.2...Y Y Y Y Y Y Y @.5.3.5.1.O.R Y Y Y Y Y Y Y Y Y Y Y Y Y X.5.3.{ E Y Y Y Y Y Y Y Y Y Y ",
"Y Y Y Y Y Y Y Y Y Y Y Y Y Y Y Y T @.$.Q Y Y Y Y Y Y Y Y Y Y %.5.} Y Y Y Y Y Y Y Y Y Y Y Y Y Y Y Y _ { E Y Y Y Y Y Y Y Y Y Y Y Y ",
"Y Y Y Y Y Y Y Y Y Y Y Y Y Y Y Y Y Y Y Y Y Y Y Y Y Y Y Y Y Y Y ` / Y Y Y Y Y Y Y Y Y Y Y Y Y Y Y Y Y Y Y Y Y Y Y Y Y Y Y Y Y Y Y ",
"Y Y Y Y Y Y Y Y Y Y Y Y Y Y Y Y Y Y Y Y Y Y Y Y Y Y Y Y Y Y Y Y Y Y Y Y Y Y Y Y Y Y Y Y Y Y Y Y Y Y Y Y Y Y Y Y Y Y Y Y Y Y Y Y ",
"Y Y Y Y Y Y Y Y Y Y Y Y Y Y Y Y Y Y Y Y Y Y Y Y Y Y Y Y Y Y Y Y Y Y Y Y Y Y Y Y Y Y Y Y Y Y Y Y Y Y Y Y Y Y Y Y Y Y Y Y Y Y Y Y ",
"Y Y Y Y Y Y Y Y Y Y Y Y Y Y Y Y Y Y Y Y Y Y Y Y Y Y Y Y Y Y Y Y Y Y Y Y Y Y Y Y Y Y Y Y Y Y Y Y Y Y Y Y Y Y Y Y Y Y Y Y Y Y Y b ",
"Y Y Y Y Y Y V B Y Y Y Y Y Y Y Y Y Y Y B V Y Y Y Y Y Y Y Y Y Y Y Y Y Y Y Y Y Y Y Y Y Y Y Y Y Y Y Y Y Y Y Y A B Y Y Y Y Y Y Y v i ",
"Y Y Y Y Y Y V i b Y N V Y Y Y Y Y Y Y B i S Y Y Y Y Y Y I b V Y Y Y Y Y B B Y Y Y Y Y Y Y Y Y Y Y I B B Y B i G Y Y Y Y Y h i v ",
"Y Y Y Y Y Y Y v i s p B Y Y Y Y Y Y Y Y s p H Y Y Y Y G f i V Y Y Y Y Y B i v Y Y Y Y Y Y Y Y Y G s p V Y P s d I Y Y Y v i h Y ",
"Y Y Y Y Y Y Y Y h i v Y Y Y Y Y Y Y Y Y G p s L Y I h p s G Y Y Y Y Y Y Y v i h Y Y Y Y Y Y Y h i s G Y Y Y G i h Y I h i v Y Y ",
"Y Y Y Y Y Y Y Y B b Y Y Y Y Y Y Y Y Y Y Y Z i s G f i h I Y Y Y Y Y Y Y Y Y s i D Y Y Y Y Y l i h P Y Y Y Y Y h p B s i j Y Y Y ",
"Y Y Y Y Y Y Y Y Y Y Y Y Y Y Y Y Y Y Y Y Y Y h p i s G Y Y Y Y Y Y Y Y Y Y Y K s p K Y Y Y v i l Y Y Y Y Y Y Y I p i p G Y Y Y Y ",
"Y Y Y Y Y Y Y Y Y Y Y Y Y Y Y Y Y Y Y Y Y Y Y s i n Y Y Y Y Y Y Y Y Y Y Y Y Y D i f Y Y h i v Y Y Y Y Y Y Y Y Y v i v Y Y Y Y Y ",
"Y Y Y Y Y Y Y Y Y Y Y Y Y Y Y Y Y Y Y Y Y Y Y Y b V Y Y Y Y Y Y Y Y Y Y Y Y Y Y h i l b i h Y Y Y Y Y Y Y Y Y Y Y m B Y Y Y Y Y ",
"Y Y Y Y Y Y Y Y Y Y Y Y Y Y Y Y Y Y Y Y Y Y Y Y Y Y Y Y Y Y Y Y Y Y Y Y Y Y Y Y Y v i i v Y Y Y Y Y Y Y Y Y Y Y Y Y Y Y Y Y Y Y ",
"Y Y Y Y Y Y Y Y Y Y Y Y Y Y Y Y Y Y Y Y Y Y Y Y Y Y Y Y Y Y Y Y Y Y Y Y Y Y Y Y Y Y j j Y Y Y Y Y Y Y Y Y Y Y Y Y Y Y Y Y Y Y Y ",
"Y Y Y Y Y Y Y Y Y Y Y Y Y Y Y Y Y Y Y Y Y Y Y Y Y Y Y Y Y Y Y Y Y Y Y Y Y Y Y Y Y Y Y Y Y Y Y Y Y Y Y Y Y Y Y Y Y Y Y Y Y Y Y Y ",
"Y Y Y Y Y Y Y Y Y Y Y Y Y Y Y Y Y Y Y Y Y Y Y Y Y Y Y Y Y Y Y Y Y Y Y Y Y Y Y Y Y Y Y Y Y Y Y Y Y Y Y Y Y Y Y Y Y Y Y Y Y Y Y Y ",
"Y Y Y Y Y Y Y Y Y Y Y Y Y Y Y Y Y Y Y Y Y Y Y Y Y Y Y Y Y Y Y Y Y Y Y Y Y Y Y Y Y Y Y Y Y Y Y Y Y Y Y Y Y Y Y Y Y Y Y Y Y Y Y Y "
};
