/* XPM */
static char *c005f1fd600d48ded411854da03b1cc4xKOWinlnylIO3kqd[] = {
/* columns rows colors chars-per-pixel */
"64 64 131 2 ",
"   c #DC1515",
".  c #DD1E1E",
"X  c #F50202",
"o  c #FF0000",
"O  c #F50C0C",
"+  c #FF0A0A",
"@  c #E31414",
"#  c #E21D1D",
"$  c #F51414",
"%  c #FF1414",
"&  c #F61C1C",
"*  c #FF1D1D",
"=  c #DF2727",
"-  c #DF3939",
";  c #E52424",
":  c #E32C2C",
">  c #EF2828",
",  c #F62424",
"<  c #FF2424",
"1  c #FF2D2D",
"2  c #E33333",
"3  c #E33D3D",
"4  c #E83C3C",
"5  c #FF3535",
"6  c #FF3D3D",
"7  c #CC4545",
"8  c #CC4C4C",
"9  c #D14D4D",
"0  c #D45353",
"q  c #D55C5C",
"w  c #E44141",
"e  c #E94141",
"r  c #EA4949",
"t  c #F74242",
"y  c #FF4242",
"u  c #FF4A4A",
"i  c #E65555",
"p  c #FE5454",
"a  c #FF5A5A",
"s  c #C66F6F",
"d  c #D76060",
"f  c #D46B6B",
"g  c #DA6C6C",
"h  c #C47F7F",
"j  c #CC7D7D",
"k  c #D67474",
"l  c #DB7272",
"z  c #DD7979",
"x  c #E86767",
"c  c #FF6565",
"v  c #FF6C6C",
"b  c #F07676",
"n  c #FF7373",
"m  c #FE7C7C",
"M  c #CA8484",
"N  c #C48989",
"B  c #CD8B8B",
"V  c #CE9494",
"C  c #C59A9A",
"Z  c #D29494",
"A  c #D39999",
"S  c #E08686",
"D  c #EF8585",
"F  c #E28C8C",
"G  c #FF8484",
"H  c #FF8C8C",
"J  c #E59C9C",
"K  c #FF9494",
"L  c #F39D9D",
"P  c #FF9999",
"I  c #CAACAC",
"U  c #D6A0A0",
"Y  c #D9A2A2",
"T  c #DCADAD",
"R  c #CCB0B0",
"E  c #D5B6B6",
"W  c #DEB2B2",
"Q  c #D5BBBB",
"!  c #D9BEBE",
"~  c #FFA4A4",
"^  c #F5A9A9",
"/  c #FFACAC",
"(  c #E1B7B7",
")  c #ECB1B1",
"_  c #E2BABA",
"`  c #FFB3B3",
"'  c #FFBDBD",
"]  c #D4C3C3",
"[  c #DAC1C1",
"{  c #D7CACA",
"}  c #DCD1D1",
"|  c #E6C3C3",
" . c #E0CBCB",
".. c #F7C3C3",
"X. c #FFC2C2",
"o. c #F1CBCB",
"O. c #FFCCCC",
"+. c #E4D5D5",
"@. c #ECD7D7",
"#. c #E4DCDC",
"$. c #EADBDB",
"%. c #FFD3D3",
"&. c #F6DFDF",
"*. c #FFDBDB",
"=. c #E6E2E2",
"-. c #ECE2E2",
";. c #EEE9E9",
":. c #EFECEC",
">. c #EFEDED",
",. c #F0E7E7",
"<. c #FAE2E2",
"1. c #FFE1E1",
"2. c #FFE4E4",
"3. c #F6E9E9",
"4. c #F0EEEE",
"5. c #F1EFEF",
"6. c #F6EFEF",
"7. c #FFEAEA",
"8. c #FAEFEF",
"9. c #FEEDED",
"0. c #F4F0F0",
"q. c #F5F3F3",
"w. c gray97",
"e. c #FFF3F3",
"r. c #FDF5F5",
"t. c #FCF7F7",
"y. c #F8F8F8",
"u. c #FAF9F9",
"i. c #FDFBFB",
"p. c gray99",
"a. c white",
/* pixels */
"a.a.a.a.a.a.a.a.a.a.a.a.a.a.a.a.a.a.a.a.a.a.a.a.a.a.a.a.a.a.a.a.a.a.a.a.a.a.a.a.a.a.a.a.a.a.a.a.a.a.a.a.a.a.a.a.a.a.a.a.a.a.a.a.",
"a.a.a.a.a.a.a.a.a.a.a.a.a.a.a.a.a.a.a.a.a.a.a.a.a.a.a.a.a.a.a.a.a.a.a.a.a.a.a.a.a.a.a.a.a.a.a.a.a.a.a.a.a.a.a.a.a.a.a.a.a.a.a.a.",
"a.a.a.a.a.a.a.a.a.a.a.a.a.a.a.a.a.a.a.a.a.a.a.a.a.a.a.a.a.a.a.a.a.a.a.a.a.a.a.a.a.a.a.a.a.a.a.a.a.a.a.a.a.a.a.a.a.a.a.a.a.a.a.a.",
"a.a.a.a.a.a.a.a.a.a.a.a.a.a.a.a.a.a.a.a.a.a.a.a.a.a.a.a.a.a.a.a.a.a.a.a.a.a.a.a.a.a.a.a.a.a.a.a.a.a.a.a.a.a.a.a.a.a.a.a.a.a.a.a.",
"a.a.a.a.a.a.a.a.a.a.a.a.a.a.a.a.a.a.a.a.a.a.a.a.a.a.a.a.a.a.a.i.a.a.a.a.a.a.a.a.a.a.a.a.a.a.a.a.a.a.a.a.a.a.a.a.a.a.a.a.a.a.a.a.",
"a.a.a.a.a.a.a.a.a.a.i.a.a.i.a.a.a.a.a.i.i.i.a.a.a.a.a.a.a.i.a.a.a.i.a.a.a.i.a.i.a.a.a.i.a.i.a.a.a.a.a.a.a.a.a.a.a.a.a.a.a.a.a.a.",
"a.a.a.a.a.a.a.a.a.u.a.y.i.i.i.i.i.i.i.i.i.i.i.i.i.i.i.i.i.i.i.i.i.i.a.i.i.i.i.i.i.i.i.a.i.a.i.a.a.a.a.a.a.a.a.a.a.a.a.a.a.a.a.a.",
"a.a.a.a.a.a.a.a.a.i.a.u.r.r.r.r.i.r.r.r.r.r.r.r.e.r.r.r.r.r.r.r.r.r.r.r.r.r.r.r.r.r.r.r.r.i.i.i.a.a.a.a.a.a.a.a.a.a.a.a.a.a.a.a.",
"a.a.a.a.a.a.a.a.u.u.r.i.8.8.8.7.7.8.7.8.7.7.8.7.7.7.8.7.8.7.8.8.8.7.7.7.8.7.8.7.8.7.8.e.e.e.r.i.a.i.i.a.a.a.a.a.a.a.a.a.a.a.a.a.",
"a.a.a.a.a.a.p.p.u.y.0.3.<.<.*.*.*.*.*.*.*.*.*.*.*.*.*.*.*.*.*.*.*.*.*.*.*.*.*.*.*.*.*.*.2.7.e.r.r.i.a.a.a.a.a.a.a.a.a.a.a.a.a.a.",
"a.a.a.a.a.a.a.u.y.0.-.@.o.O...X.X.' X.' ' ' X.X.' ' X.X.X.' ' ' X.X.' X.X.' ' ' X.X.....O.*.2.7.r.i.i.a.a.a.a.a.a.a.a.a.a.a.a.a.",
"a.a.a.a.a.a.a.u.0.;.@.| ) ^ ~ P P K P K K K K P K P K K P K K K K K P K P P K K P P P ~ / ' %.1.8.e.i.i.a.a.a.a.a.a.a.a.a.a.a.a.",
"a.a.a.a.a.a.p.w.0.-. .W J D m n v v v v v v v v v v v v v n v v n v v v v v n v v v n m H ~ ' %.1.e.r.i.i.a.a.a.a.a.a.a.a.a.a.a.",
"a.a.a.a.a.a.p.w.;.#.[ Y S x p u y 6 y y u u 6 y y y 6 y y u u y y 6 y 6 y 6 u u y y y u c H ~ O.1.8.r.i.i.a.a.a.a.a.a.a.a.a.a.a.",
"a.a.a.a.a.a.a.w.;.+.! A k i 4 < * * < < < < < < * * * < < < < < < * * < < < < < < < < 5 u v P ' *.7.e.i.a.a.a.a.a.a.a.a.a.a.a.a.",
"a.a.a.a.a.p.u.u.5.} E B f w , % + + + + + + + + + + + + + + + + + + o + o + + + + + % < y c G ` O.1.e.r.i.i.a.a.a.a.a.a.a.a.a.a.",
"a.a.a.a.a.a.u.w.>.} Q Z g 3 , + o o o o o o o o o o o o o o o o o o o o o o o o o o o % 5 a G ~ O.1.e.r.i.a.a.a.a.a.a.a.a.a.a.a.",
"a.a.a.a.a.a.a.w.>.+.Q Z g w , + o o o o o o o o o o o o o o o o o o o o o o o o o o o * 5 p m ~ O.1.e.r.i.i.a.a.a.a.a.a.a.a.a.a.",
"a.a.a.a.a.a.u.w.5.#.E Z g r , + o o o o o o o o o o o o o o o o o o o o o o o o o o o % 1 p m ~ ..1.7.r.i.a.a.a.a.a.a.a.a.a.a.a.",
"a.a.a.a.a.a.p.u.5.#.Q Z g r , + o o o o o o o o o o o o o o o o o o o o o o o o o o o + < u n P ' *.8.r.i.i.a.a.a.a.a.a.a.a.a.a.",
"a.a.a.a.a.p.p.w.5.#.[ A g w , + o o o o o o o o o o o o o o o o o o o o o o o o o o o + < y v K ' *.8.r.i.a.a.a.a.a.a.a.a.a.a.a.",
"a.a.a.a.a.a.a.w.5.#.[ A g w , + o o o o o o o o o o o o o o o o o o o o o o o o o o o + * 6 c H ` %.1.r.i.i.a.a.a.a.a.a.a.a.a.a.",
"a.a.a.a.a.a.a.w.5.#.! A g 3 & + o o o o o o o o o o o o o o o o o o o o o o o o o o o + * 5 a H ` %.1.r.i.i.a.a.a.a.a.a.a.a.a.a.",
"a.a.a.a.a.a.a.w.5.#.! A f 3 & + o o o o o o o o o o o o o o o o o o o o o o o o o o o + * 1 p m / O.2.r.r.a.a.a.a.a.a.a.a.a.a.a.",
"a.a.a.a.a.a.p.w.w.#.[ A f 3 & + o o o o o o o o o o o o o o o o o o o o o o o o o o o + * 1 p m ~ O.*.e.r.i.a.a.a.a.a.a.a.a.a.a.",
"a.a.a.a.a.a.p.u.;.#.! A l w , + o o o o o o o o o o o o o o o o o o o o o o o o o o o o % < u n P X.*.8.r.i.a.a.a.a.a.a.a.a.a.a.",
"a.a.a.a.a.a.a.w.w.#.! A f w , + o o o o o o o o o o o o o o o o o o o o o o o o o o o o + < y v K ' *.7.r.i.i.a.a.a.a.a.a.a.a.a.",
"a.a.a.a.a.a.p.u.;.#.! V l r , + o o o o o o o o o o o o o o o o o o o o o o o o o o o o + * y c H ` %.1.e.i.i.a.a.a.a.a.a.a.a.a.",
"a.a.a.a.a.a.p.w.>.#.! V g r , + o o o o o o o o o o o o o o o o o o o o o o o o o o o o o % 5 p G / %.1.e.r.a.a.a.a.a.a.a.a.a.a.",
"a.a.a.a.a.p.a.w.0.#.! A g 4 , + o o o o o o o o o o o o o o o o o o o o o o o o o o o o o % 1 p m ~ O.1.8.i.i.a.a.a.a.a.a.a.a.a.",
"a.a.a.a.a.a.p.u.>.#.[ A g w , + o o o o o o o o o o o o o o o o o o o o o o o o o o o o o % < u m ~ ..1.7.i.i.a.a.a.a.a.a.a.a.a.",
"a.a.a.a.a.a.p.w.5.#.[ A g 3 & + o o o o o o o o o o o o o o o o o o o o o o o o o o o o o + < y n P X.*.8.r.i.a.a.a.a.a.a.a.a.a.",
"a.a.a.a.a.a.a.w.>.@.! A f 3 & + o o o o o o o o o o o o o o o o o o o o o o o o o o o o o + * 6 c K ' *.7.r.i.i.a.a.a.a.a.a.a.a.",
"a.a.a.a.a.a.p.u.5.#.! A f 3 , + o o o o o o o o o o o o o o o o o o o o o o o o o o o o o o % 6 c H ` %.7.r.i.a.a.a.a.a.a.a.a.a.",
"a.a.a.a.a.a.u.u.>.=.! A l w , + o o o o o o o o o o o o o o o o o o o o o o o o o o o o o + * 5 a G ` %.7.e.i.a.a.a.a.a.a.a.a.a.",
"a.a.a.a.a.a.a.u.5.#.! A g w , + o o o o o o o o o o o o o o o o o o o o o o o o o o o o o o % 5 p G / O.1.e.r.i.a.a.a.a.a.a.a.a.",
"a.a.a.a.a.a.a.u.>.=.Q A g r , + o o o o o o o o o o o o o o o o o o o o o o o o o o o o o o % 1 p m ~ O.2.e.r.a.a.a.a.a.a.a.a.a.",
"a.a.a.a.a.u.u.w.5.#.Q Z g r , + o o o o o o o o o o o o o o o o o o o o o o o o o o o o o o + < u m ~ O.1.e.i.i.i.a.a.a.a.a.a.a.",
"a.a.a.a.a.a.a.w.5.#.! A g 4 , + o o o o o o o o o o o o o o o o o o o o o o o o o o o o o o + < u m ~ ..*.8.i.i.a.a.a.a.a.a.a.a.",
"a.a.a.a.a.a.a.u.5.#.! A g w , + o o o o o o o o o o o o o o o o o o o o o o o o o o o o o o + < y n P O.1.e.r.a.a.a.a.a.a.a.a.a.",
"a.a.a.a.a.a.p.w.>.#.] A g 3 & + o o o o o o o o o o o o o o o o o o o o o o o o o o o o o o + < u n ~ ..*.e.r.a.a.a.a.a.a.a.a.a.",
"a.a.a.a.a.a.a.u.>.#.[ A f 3 & + o o o o o o o o o o o o o o o o o o o o o o o o o o o o o o + < y v P ..*.8.r.i.i.a.a.a.a.a.a.a.",
"a.a.a.a.a.a.p.w.>.$.! Z f 3 & + o o o o o o o o o o o o o o o o o o o o o o o o o o o o o o + < u v K X.*.e.r.a.a.a.a.a.a.a.a.a.",
"a.a.a.a.a.a.p.u.q.#.! A l w , O o o o o o o o o o o o o o o o o o o o o o o o o o o o o o o + < u v K X.*.7.r.i.i.a.a.a.a.a.a.a.",
"a.a.a.a.a.a.p.w.q.#.Q A f w , + o o o o o o o o o o o o o o o o o o o o o o o o o o o o o o + < y v K ' *.7.i.i.i.a.a.a.a.a.a.a.",
"a.a.a.a.a.a.a.u.0.#.! A l r , + o o o o o o o o o o o o o o o o o o o o o o o o o o o o o o + < y n P X.*.8.r.i.a.a.a.a.a.a.a.a.",
"a.a.a.a.a.a.a.w.>.#.Q Z g r , + o o o o o o o o o o o o o o o o o o o o o o o o o o o o o o + * 6 v K X.*.7.e.i.a.a.a.a.a.a.a.a.",
"a.a.a.a.a.a.u.w.0.$.! A g e , + o o o o o o o o o o o o o o o o o o o o o o o o o o o o o o + * y v P ' *.7.r.i.a.a.a.a.a.a.a.a.",
"a.a.a.a.a.a.p.u.>.#.[ A g w , + o o o o o o o o o o o o o o o o o o o o o o o o o o o o o o + < 6 v K X.*.7.e.i.a.a.a.a.a.a.a.a.",
"a.a.a.a.a.a.p.w.w.#.[ A g 3 & + o o o o o o o o o o o o o o o o o o o o o o o o o o o o o o + < y v P X.*.8.r.a.a.a.a.a.a.a.a.a.",
"a.a.a.a.a.a.p.u.;.#.! A f w & + o o o o o o o o o o o o o o o o o o o o o o o o o o o o o o + < 6 v K X.*.7.r.i.i.a.a.a.a.a.a.a.",
"a.a.a.a.a.a.a.w.>.#.[ V f 3 & + o o o o o o o o o o o o o o o o o o o o o o o o o o o o o o + < u v K ' *.8.r.i.i.a.a.a.a.a.a.a.",
"a.a.a.a.a.a.a.w.0.#.] A l w , + o o o o o o o o o o o o o o o o o o o o o o o o o o o o o o + < u v K ' *.8.r.a.i.a.a.a.a.a.a.a.",
"a.a.a.a.a.a.a.w.0.#.[ A f 3 , + o o o X o o o o o o + + + + + + + o + o o o o X o o o o o o + < y v K X.*.7.r.i.a.a.a.a.a.a.a.a.",
"a.a.a.a.a.a.a.u.>.#.! V l 0 > O X X X X X X O O $ $ & & & & & & & $ $ O O X X X X X X X X X O , t v L ' *.8.r.i.a.a.a.a.a.a.a.a.",
"a.a.a.a.a.a.u.u.q.=.] C j q - ;         # ; ; ; 2 3 3 w w 3 3 e 4 3 3 = ; . # @ @ @         . : r b L ..*.8.r.i.i.a.a.a.a.a.a.a.",
"a.a.a.a.a.a.a.u.q.;.} R N s d 8 7 7 7 7 8 0 d g g l k k l l l z z z l k f q 0 9 0 0 0 9 8 7 7 0 g F ) o.&.e.y.a.a.a.a.a.a.a.a.a.",
"a.a.a.a.a.a.a.p.w.>.#.{ I C N h M M M M V A A T T W W W T T ( _ ( _ _ W T Y U A A A A A V B M M A T | $.3.0.y.u.a.a.a.a.a.a.a.a.",
"a.a.a.a.a.a.a.a.p.w.5.=.} ] Q R Q Q [ {  .+.@.$.$.-.$.-.$.-.-.-.-.;.-.-.-.$.$.$.@.+.@.+.{  .[ { { +.$.3.8.r.u.a.a.a.a.a.a.a.a.a.",
"a.a.a.a.a.a.a.a.p.p.w.w.>.;.#.=.-.-.3.;.6.5.0.w.w.r.w.r.r.i.y.y.u.r.u.r.r.w.r.0.u.0.0.5.6.6.3.>.3.3.0.w.u.u.i.a.a.a.a.a.a.a.a.a.",
"a.a.a.a.a.a.a.a.a.a.p.p.w.w.w.w.w.r.u.u.u.u.a.a.a.a.a.u.p.a.i.a.a.a.a.a.a.a.p.p.a.a.y.u.a.u.u.u.u.u.a.u.u.a.a.a.a.a.a.a.a.a.a.a.",
"a.a.a.a.a.a.a.a.a.a.a.p.u.p.p.p.a.a.a.a.a.a.a.a.a.a.a.a.a.a.a.a.a.a.a.a.a.a.a.a.a.a.a.a.a.a.a.a.a.a.a.a.a.a.a.a.a.a.a.a.a.a.a.a.",
"a.a.a.a.a.a.a.a.a.a.a.a.a.a.p.p.a.a.a.a.a.a.a.a.a.a.a.a.a.a.a.a.a.a.a.a.a.a.a.a.a.a.a.a.a.a.a.a.a.a.a.a.a.a.a.a.a.a.a.a.a.a.a.a.",
"a.a.a.a.a.a.a.a.a.a.a.a.a.a.a.p.a.a.a.a.a.a.a.a.a.a.a.a.a.a.a.a.a.a.a.a.a.a.a.a.a.a.a.a.a.a.a.a.a.a.a.a.a.a.a.a.a.a.a.a.a.a.a.a."
};
