/* XPM */
static char *_3203615c5c54186c399414dbe28f557InW7Qvt1RbE4TjhU[] = {
/* columns rows colors chars-per-pixel */
"64 64 144 2 ",
"   c #000100",
".  c #010C02",
"X  c #021504",
"o  c #021B05",
"O  c #032607",
"+  c #042807",
"@  c #052D08",
"#  c #053309",
"$  c #063B0B",
"%  c #3F2909",
"&  c #2E3E0D",
"*  c #35340C",
"=  c #38310B",
"-  c #5D0102",
";  c #550A03",
":  c #590904",
">  c #5E0B09",
",  c #4E1305",
"<  c #461F07",
"1  c #4D1B06",
"2  c #4E1E08",
"3  c #531105",
"4  c #511807",
"5  c #5C160C",
"6  c #630B0B",
"7  c #611E14",
"8  c #4F2007",
"9  c #432308",
"0  c #4D2308",
"q  c #51220B",
"w  c #42380B",
"e  c #552C1B",
"r  c #5D2E1A",
"t  c #672A24",
"y  c #084F01",
"u  c #07420C",
"i  c #07480D",
"p  c #084F0F",
"a  c #154A02",
"s  c #005600",
"d  c #025D03",
"f  c #09510F",
"g  c #0D4412",
"h  c #0B5D12",
"j  c #1C5611",
"k  c #165D13",
"l  c #1B5912",
"z  c #27470E",
"x  c #2A440E",
"c  c #244B0F",
"v  c #234D10",
"b  c #215010",
"n  c #28571A",
"m  c #245B1A",
"M  c #345912",
"N  c #056306",
"B  c #076808",
"V  c #0A6C0A",
"C  c #126C0D",
"Z  c #0C720D",
"A  c #0E780F",
"S  c #11740E",
"D  c #0D6614",
"F  c #0C6A15",
"G  c #126314",
"H  c #106916",
"J  c #1B6119",
"K  c #0F7910",
"L  c #117F13",
"P  c #306214",
"I  c #277517",
"U  c #287116",
"Y  c #247917",
"T  c #247D18",
"R  c #4A5217",
"E  c #44621B",
"W  c #584A25",
"Q  c #138315",
"!  c #158817",
"~  c #1F871A",
"^  c #168B19",
"/  c #1B8D1B",
"(  c #1A921C",
")  c #218319",
"_  c #158D21",
"`  c #189423",
"'  c #179E25",
"]  c #199B25",
"[  c #1D9E29",
"{  c #22862A",
"}  c #209824",
"|  c #318C33",
" . c #2A9434",
".. c #2E9A39",
"X. c #329C3B",
"o. c #1AA227",
"O. c #1BA328",
"+. c #1EAB2A",
"@. c #1FB42D",
"#. c #20B72E",
"$. c #20BB2F",
"%. c #34A03D",
"&. c #33AC3C",
"*. c #23BE31",
"=. c #22C231",
"-. c #25CA34",
";. c #27D237",
":. c #28D536",
">. c #29D439",
",. c #2BD93A",
"<. c #37A541",
"1. c #3AA442",
"2. c #3BAC47",
"3. c #3CAE48",
"4. c #39B343",
"5. c #3EB84A",
"6. c #40BA4C",
"7. c #46C152",
"8. c #4CC65B",
"9. c #52CA5E",
"0. c #52CD63",
"q. c #56D067",
"w. c #57D269",
"e. c #58D46A",
"r. c #5BD96F",
"t. c #5FDB73",
"y. c #63DE76",
"u. c #66E27B",
"i. c #68E57E",
"p. c #6AE782",
"a. c #6BE882",
"s. c #6DEA85",
"d. c #70ED87",
"f. c #72EE89",
"g. c #72EF8A",
"h. c #73F18B",
"j. c #78F292",
"k. c #7AF793",
"l. c #7AF695",
"z. c #7CF795",
"x. c #7BF995",
"c. c #7DFA97",
"v. c #7EFC99",
"b. c #7FFC9A",
/* pixels */
"( ( ( ( ( ( ( ( ( ( ( ( ( ( ( ( ( ( ( ( ( ( ( ( ( ( ( ( ( ( ( ( ( ( ( ( ( ( ( ( ( ( ( ( ( ( ( ( ( ( ( ( ( ( ( ( ( ( ( ( ( ( ( ( ",
"( ( ( ( ( ( ( ( ( ( ( ( ( ( ( ( ( ( ( ( ( ( ( ( ( ( ( ( ( ( ( ( ( ( ( ( ( ( ( ( ( ( ( ( ( ( ( ( ( ( ( ( ( ( ( ( ( ( ( ( ( ( ( ( ",
"( ( ( ( ( ( ( ( ( ( ( ( ( ( ( ( ( ( ( ( ( ( ( ( ( ( ( ( ( ( ( ( ( ( ( ( ( ( ( ( ( ( ( 4.e.8.( ( ( ( ( ( ( ( ( ( ( ( ( ( ( ( ( ( ",
"( ( ( ( ( 7.q.( ( q.7.( ( ( ( ( ( ( ( 7.q.( ( ( ( ( ( ( ( ( ( ( ( ( ( ( ( ( 7.0.( u.x.v.k.7.( ( ( ( 7.q.( ( ( } 0.8.( ( ( ( ( ( ",
"( ( ( ( ( 8.v.e.t.v.8.( ( ( ( ( ( ( ( 8.v.e.( 5.r.8.( ( ( ( ( ( ( ( ( ( ( ( 8.v.d.v.s.4.( ( ( ( ( ( 8.v.e.( &.f.v.7.( ( ( ( ( ( ",
"( ( ( ( ( ( e.v.v.t.( ( ( ( ( ( ( ( ( ( e.v.v.v.k.7.( ( ( ( ( ( ( ( ( ( ( ( ( a.v.a.( ( ( ( ( ( ( ( ( e.v.u.v.h.&.( ( ( ( ( ( ( ",
"( ( ( ( ( ( ( u.u.( ( ( ( ( ( ( ( ( ( ( ( a.s.5.( ( ( ( ( ( ( ( ( ( ( ( ( ( ( 7.i.7.( ( ( ( ( ( ( ( ( ( w.u.0.] ( ( ( ( ( ( ( ( ",
"( ( ( ( ( ( ( ( ( ( ( ( ( ( ( ( ( ( ( ( ( ( ( ( ( ( ( ( ( ( ( ( ( ( ( ( ( ( ( ( ( ( ( ( ( ( ( ( ( ( ( ( ( ( ( ( ( ( ( ( ( ( ( ( ",
"( ( ( ( ( ( ( ( ( ( ( ( ( ( ( ( ( ( ( ( ( ( ( ( ( ( ( ( ( ( ( ( ( ( ( ( ( ( ( ( ( ( ( ( ( ( ( ( ( ( ( ( ( ( ( ( ( ( ( ( ( ( ( ( ",
"( ( ( ( ( ( ( ( ( ( ( ( ( ( ( ( ( ( ( ( ( ( ( ( ( ( ( ( ( ( ( ( ( ( ( ( ( ( ( ( ( ( ( ( ( ( ( ( ( ( ( ( ( ( ( ( ( ( ( ( ( ( ( ( ",
"( ( ( ( ( ( ( ( ( ( ( ( ( ( ( ( ( ( ( ( ( ( ( ( ( ( ( ( ( ( ( ( ( ( ( ( ( ( ( ( ( ( ( ( ( ( ( ( ( ( ( ( ( ( ( ( ( ( ( ( ( ( ( ( ",
"( ( ( ( ( ( ( ( ( ( ( ( ( ( ( ( ( ( ( ( ( ( ( ( ( ( A V ( ( ( ( ( ( ( ( ( ( ( ( ( ( ( ( ( ( ( ( ( ( ( ( ( ( ( ( ( ( ( ( ( ( ( ( ",
"( ( ( ( ( ( ( ( ( ( ( ( ( ( ( ( ( ( ( ( ( ( ( ( ( ( Z s d B B A ( ( ( ( ( ( ( ( ( ( ( ( ( ( ( ( ( ( ( ( ( ( ( ( ( ( ( ( ( ( ( ( ",
"( ( ( ( ( ( ( ( ( ( ( A Z ( ( ( Z A ( ( ( ( ( ( ( ( ( N s d N A ( ( ( ( ( ( ( ( ( ( ( ( ( Q Z ^ ^ ( ^ ( ( ( ( K V Z ( ( ( ( ( ( ",
"( ( ( ( ( ( ( ( ( ( ( Z s B Q N s A ( ( ( ( ( ( ( ( ( ( V A ( ( ( ( ( ( ( ( ( ( ( ( ( ( ( A s d V Q Q A / B s s d Z ( ( ( ( ( ( ",
"( ( ( ( ( ( ( ( ( ( ( ( B s s d Q ( ( ( ( ( ( ( ( ( ( ( ( ( ( ( ( ( ( ( ( ( ( ( ( ( ( ( ( ( Q d s N ^ ! L s d Z ( ( ( ( ( ( ( ( ",
"( ( ( ( ( ( ( ( ( ( ( ( ( N N ^ ( ( ( ( ( ( ( ( ( ( / ( ( / ( ( ( ( ( ( ( ` ( ( ( ( ( ( ( ( ( / B s d Q d s L / ( ( ( ( ( ( ( ( ",
"( ( ( ( ( ( ( ( ( ( ( ( ( ( ( ( ( ( ( ( ( ( ( ( ( ( ( ( / ( / ( ( ( / / / / / ( ( ( ( ( ( ( ( ( ( Q d s s K / ( ( ( ( ( ( ( ( ( ",
"( ( ( ( ( ( ( ( ( ( ( ( ( ( ( ( ( ( ( ( ( ( / ( P - - - 6 8 - - q - - - - 6 / / / ( ( / ( ( ( ( ( ( / B B ( ( ( ( ( ( ( ( ( ( ( ",
"( ( ( ( ( ( ( ( ( ( ( ( ( ( ( ( ( ( ( - - - - - - - - - - - - - - - - - - - - 2 / / ( ( ( ( ( ( ( ( ( ^ ( ( ( ( ( ( ( ( ( ( ( ( ",
"( ( ( ( ( ( ( ( ( ( ( ( ( ( ( ( ( ( - - j j 9 z z G D F F D l l G J J J n m n - ) ) ( ( ( ( ( ( ( ( ( ( ( ( ( ( ( ( ( ( ( ( ( ( ",
"( ( ( ( ( ( ( ( ( ( ( ( / ( ( ( 5.- - J H k v G F F F H F o.@._ F F F F H H F - T ) / / ( / ( ( ( ( ( ( ( ( ( ( ( ( ( ( ( ( ( ( ",
"( ( ( ( ( ( ( ( ( ( 7.0.( ( y.- - - F F F D # @ D F F F F [ ;.,.;.] F F G F H * - ) ) / ( ( ( ( ( ( ( ( ( ( ( ( ( ( ( ( ( ( ( ( ",
"( ( ( ( ( ( ( ( ( ( 8.v.w.q.j.- - F F F H F #   O F F F F p . g [ ] D F h D F G - - ) ) ( ( 8.0.] ( ( ( ( ( 0.7.( ( ( ( ( ( ( ( ",
"( ( ( ( ( ( ( ( ( ( ( w.l.j.W R *.*.=.O.F F F O   # F F $   . p D D D D h p F F 6 - - ) / ( 7.b.f.&.( ( ( e.v.8.( ( ( ( ( ( ( ( ",
"( ( ( ( ( ( ( ( ( ( ( ( t.r - E *.*.=.O.F F F F @ $ F F # + D D F D F D  .| H F m - - 0 / / / &.h.v.h.a.h.v.w.( ( ( ( ( ( ( ( ( ",
"( ( ( ( ( ( ( ( ( ( ( ^ Y - - F H F F F H F u $ F [ +.F F F F u $ F F F 8.1.J F F F - - I / ( ( ] i.h.a.h.i.( ( ( ( ( ( ( ( ( ( ",
"( ( ( ( ( ( ( ( ( ( ^ 8 - - G F H F H F F F o o F O.,.+.F F F X o D F { 9.{ G F F F - - - / ( ( ( ( ( ( ( ( ( ( ( ( ( ( ( ( ( ( ",
"( ( ( ( ( ( ( ( ( ^ - - - 9 F H H F F F F F o o F F @.,.o.F F o X F F <.8.D D D F F l - - ) / ( ( ( ( ( ( ( ( ( ( ( ( ( ( ( ( ( ",
"( ( ( ( ( ( ( ( ( / - - - H H F <...F F F F X o F F F o.' F F o o F F  . .H F D F F H 9 - I / ( ( ( ( ( ( ( ( ( ( ( ( ( ( ( ( ( ",
"( ( ( ( ( ( ( ( / ) Y - k F F 4.9...F F F F # # F F D F D D F $ $ F F F F V F F F F F F 3 - ) ( / ( ( ( ( ( ( ( ( ( ( ( ( ( ( V ",
"( ( ( ( ( ( ( A C T - j F F ..9.3.F F F F F F F F F D F F F F F F F F F F F F F F F F F l - - / / ( ( ( ( ( A Z ( ( ( ( ( ( N d ",
"( ( ( ( / ( ( V y 1 : H F F  .%.F D F F F F F u . . X . X i F F F F F F D F F F B F F F F k - ~ / / ( ( ( ( S s N ( ( ( ( N s N ",
"( ( ( ( ( ( ( ^ a - v F F D F F F F F F D o       . . .       X i B F F F F B F F F F F F F - ~ / / / ( ( ( ( N s N ( ^ N s B ( ",
"( ( ( ( ( ( ( - - % F F F F F F F F F i .   X # $ i p p p i X       X F F D F F F F F F F F & Y ) ( ( ( / ( ( ( d s N d s N ( ( ",
"( ( ( ( ( ( / - , k F F F F F F F F o   . $ f i p D F F F F F F i .   O F D F F F F F F F F D w ) ) / / ( ( ( ( ( N s s L ( ( ( ",
"( ( ( ( ( ( / ; x F F H F F F D F i   . u i i N D F F F F F F F F F O   X F F F  .%.F F F F F x w ) / / ` ( ( ( ( Z N A ( ( ( ( ",
"( ( ( ( ( - - < F  .X.G D F F F h . . i i h F F F F  . .F F B F F F D X   O F F ..8.2.F F F F F ; - ) / ( / ( ( ( ( ( ( ( ( ( ( ",
"( ( ( ( 0 - 3 l F X.9.1.D D F F @   u D F F F F F @.,.,.;.@.F F F F F F +   + F F 3.9.%.F F F F G - U / / ( ( ( ( ( ( ( ( ( ( ( ",
"( ( ( ( - - l F F l 1.9.<.F H F $ # F F _ @.o.F F @.>.,.;.@.F F F F F F F @ @ F F F <...F F F H H 9 - / ( ( ( ( ( ( ( ( ( ( ( ( ",
"( ( ( - - n H F F F F 2...F F F F D *.>.,.,.=.F F F 5.3.F F F F B F F F D F F D F D D F ` [ F F F D : I / / / ( ( ( } 0.8.( ( ( ",
"( ( 2 - v F F F F F H F F F F F F F =.>.-.=.' F F F  . .F F F F .. .F F D F F D D D H D *.*.F F F D j - / ( ( ( ( &.f.v.7.( ( ( ",
"8.5 - - c G H H G F F F F F F H F F F F H F F F H F F F F F F 1.0. .F F H F D +.:.:.:.#.*.*.F F F G c - T ( ( 6.s.v.f.&.( ( ( ( ",
"0.7 - - - - 6 t t e * v l F H H F F F F F F F F F F F F F F ..0.<.F F F F F F $.:.:.:.#.*.=.F H F H - - 6 i.z.b.x.p.] ( ( ( ( ( ",
"( y.> - : - - - - - - - - - - - - ; 4 9 & G F F F F F F F F  .%.F F F F F F F F F F F F ] ] F F H H l - - c.i.6.( ( ( ( ( ( ( ( ",
"( ( i.a.} ( ; - - - - - - - - - - - - - - - - - - - - ; 3 < = & c b F D F F D F F F F F F F H F F H H l - q ( ( ( ( ( ( ( ( ( ( ",
"( ( ( ( ( ( ( ( ( 0 - - : - - : : > - - : : : - - - - - - - - - - - - - 6 - ; 3 0 , k H G D F F F H k l - - - - ( ( ( ( ( ( ( ( ",
"( ( ( ( ( ( ( ( ( ( ( ( ( ( ( ( / / ( / ( ( / q - - - - : : : - - - - - - - - - - - - - - 6 - 2 6 - - - - 6 - - ( ( ( ( ( ( ( ( ",
"( ( ( ( ( ( ( ( ( ( ( ( ( ( ( ( ( ( ( ( ( ( ( ( ( / ( ( ( ( ( - - 3 ; 5 3 4 M T ) / ) ) ) ) ) ) / / / ( ( ( ( ( ( ( ( ( ( ( ( ( ",
"( ( ( ( ( ( ( ( ( ( ( ( ( ( ( ( ( ( ( ( ( ( ( ( ( ( ( ( / ( ( ( ( ( ( ( / ( ( / ( ( ( / ( / ( / / / / ( ( ( ( ( ( ( ( ( ( ( ( ( ",
"( ( ( ( ( ( ( ( ( ( ( ( ( ( ( ( ( ( ( ( ( ( ( ( ( ( ( ( ( ( ( ( ( ( ( ( ( ( ( ( ( ( ( ( ( ( / ( / ( ( ( ( ( ( ( ( ( ( ( ( ( ( V ",
"( ( ( ( ( ( A Z ( ( ( ( ( ( ( ( ( ( ( A Z ( ( ( ( ( ( ( ( ( ( ( ( ( ( ( ( ( ( ( ( ( / ( ( ( ( ( ( ( ( ( ( A A ( ( ( ( ( ( ( V s ",
"( ( ( ( ( ( A s V ( V A ( ( ( ( ( ( ( Z s L ( ( ( ( ( ( ^ B A / ( ( ( ( L V ( ( ( ( ( ( ( ( ( ( ( / Z Z ( Z s Q ( ( ( ( ( N s V ",
"( ( ( ( ( ( ( V s N s Z ( ( ( ( ( ( ( ( d s Q ( ( ( ( Q N s L ( ( ( ( ( Z s B ( ( ( ( ( ( ( ( ( Q d s A ( ^ d d ^ ( ( ( V s N ( ",
"( ( ( ( ( ( ( ( B s B ( ( ( ( ( ( ( ( ( ^ s d ( ( ^ B s d Q ( ( ( ( ( ( ( B s N ( ( ( ( ( ( ( N s d Q ( ( ( Q s N ( / N s V ( ( ",
"( ( ( ( ( ( ( ( A V ( ( ( ( ( ( ( ( ( ( ( A s d Q d s N / ( ( ( ( ( ( ( ( ( d s Q ( ( ( ( ( B s N / ( ( ( ( ( N s Z d s B ( ( ( ",
"( ( ( ( ( ( ( ( ( ( ( ( ( ( ( ( ( ( ( ( ( ( N s s d ! ( ( ( ( ( ( ( ( ( ( ( ^ d d ! ( ( ( B s B ( ( ( ( ( ( ( ( s s d Q ( ( ( ( ",
"( ( ( ( ( ( ( ( ( ( ( ( ( ( ( ( ( ( ( ( ( ( ( N s Z ( ( ( ( ( ( ( ( ( ( ( ( ( L s d ( ( N s B ( ( ( ( ( ( ( ( ( V s B ( ( ( ( ( ",
"( ( ( ( ( ( ( ( ( ( ( ( ( ( ( ( ( ( ( ( ( ( ( ( Z A ( ( ( ( ( ( ( ( ( ( ( ( ( ( B s B V s N ( ( ( ( ( ( ( ( ( ( ( Z Z ( ( ( ( ( ",
"( ( ( ( ( ( ( ( ( ( ( ( ( ( ( ( ( ( ( ( ( ( ( ( ( ( ( ( ( ( ( ( ( ( ( ( ( ( ( ( ( V s s V ( ( ( ( ( ( ( ( ( ( ( ( ( ( ( ( ( ( ( ",
"( ( ( ( ( ( ( ( ( ( ( ( ( ( ( ( ( ( ( ( ( ( ( ( ( ( ( ( ( ( ( ( ( ( ( ( ( ( ( ( ( ( B B ( ( ( ( ( ( ( ( ( ( ( ( ( ( ( ( ( ( ( ( ",
"( ( ( ( ( ( ( ( ( ( ( ( ( ( ( ( ( ( ( ( ( ( ( ( ( ( ( ( ( ( ( ( ( ( ( ( ( ( ( ( ( ( ( ( ( ( ( ( ( ( ( ( ( ( ( ( ( ( ( ( ( ( ( ( ",
"( ( ( ( ( ( ( ( ( ( ( ( ( ( ( ( ( ( ( ( ( ( ( ( ( ( ( ( ( ( ( ( ( ( ( ( ( ( ( ( ( ( ( ( ( ( ( ( ( ( ( ( ( ( ( ( ( ( ( ( ( ( ( ( ",
"( ( ( ( ( ( ( ( ( ( ( ( ( ( ( ( ( ( ( ( ( ( ( ( ( ( ( ( ( ( ( ( ( ( ( ( ( ( ( ( ( ( ( ( ( ( ( ( ( ( ( ( ( ( ( ( ( ( ( ( ( ( ( ( "
};
