/* XPM */
static char *_dfaa7a5eebe4d4fe550cbe1a9ab5bdcHttFyxaVrxkEIHy0[] = {
/* columns rows colors chars-per-pixel */
"64 64 85 1 ",
"  c #005600",
". c #015801",
"X c #035D03",
"o c #035F04",
"O c #045E04",
"+ c #036004",
"@ c #056205",
"# c #056106",
"$ c #066506",
"% c #076708",
"& c #076908",
"* c #096A09",
"= c #0A6F0B",
"- c #0B6E0C",
"; c #0B6F0C",
": c #0B700C",
"> c #0C720D",
", c #0D740E",
"< c #0D750E",
"1 c #0E780F",
"2 c #0F7910",
"3 c #117F13",
"4 c #127F13",
"5 c #128214",
"6 c #138315",
"7 c #158517",
"8 c #158817",
"9 c #178B19",
"0 c #178D19",
"q c #188D1A",
"w c #1A921C",
"e c #1D9620",
"r c #209723",
"t c #209824",
"y c #219A25",
"u c #269F2B",
"i c #2AA330",
"p c #33AC3C",
"a c #38B040",
"s c #39B343",
"d c #3BB545",
"f c #3DB749",
"g c #40BA4B",
"h c #40BA4C",
"j c #42BD4F",
"k c #46C153",
"l c #48C557",
"z c #4BC75A",
"x c #4BC75B",
"c c #4CC75B",
"v c #4DC75B",
"b c #52CD62",
"n c #52CE63",
"m c #52CE64",
"M c #54CF65",
"N c #57D369",
"B c #59D46B",
"V c #5CD76E",
"C c #5BD96F",
"Z c #5FDC73",
"A c #5FDC74",
"S c #62DE75",
"D c #65E179",
"F c #66E27A",
"G c #66E47B",
"H c #66E37C",
"J c #69E57E",
"K c #6AE781",
"L c #6BE881",
"P c #6CEB83",
"I c #6CEA85",
"U c #70ED87",
"Y c #72EE89",
"T c #73F08B",
"R c #73F18D",
"E c #74F18D",
"W c #76F48F",
"Q c #75F390",
"! c #7AF793",
"~ c #7AF895",
"^ c #7CF896",
"/ c #7EFB9A",
"( c #7FFB9A",
") c #7DFC99",
"_ c #7FFC9A",
/* pixels */
"wwwwwwwwwwwwwwwwwwwwwwwwwwwwwwwwwwwwwwwwwwwwwwwwwwwwwwwwwwwwwwww",
"wwwwwwwwwwwwwwwwwwwwwwwwwwwwwwwwwwwwwwwwwwwwwwwwwwwwwwwwwwwwwwww",
"wwwwwwwwwwwwwwwwwwwwwwwwwwwwwwwwwwwwwwwwwwwdBvwwwwwwwwwwwwwwwwww",
"wwwwwkbwwMkwwwwwwwwkbwwwwwwwwwwwwwwwwwkbwJ^(!kwwwwkbwwwtbvwwwwww",
"wwwwwv)BS)vwwwwwwwwv)BwhCvwwwwwwwwwwwwv)U/Iawwwwwwv)BwpY)kwwwwww",
"wwwwwwB)/ZwwwwwwwwwwB)/)!kwwwwwwwwwwwwwP/LwwwwwwwwwN)F)Tpwwwwwww",
"wwwwwwwFHwwwwwwwwwwwwKIfwwwwwwwwwwwwwwwjLkwwwwwwwwwwNFbtwwwwwwww",
"wwwwwwwwwwwwwwwwwwwwwwwwwwwwwwwwwwwwwwwwwwwwwwwwwwwwwwwwwwwwwwww",
"wwwwwwwwwwwwwwwwwwwwwwwwwwwwwwwwwwwwwwwwwwwwwwwwwwwwwwwwwwwwwwww",
"wwwwwwwwwwwwwwwwwwwwwwwwwwwwwwwwwwwwwwwwwwwwwwwwwwwwwwwwwwwwwwww",
"wwwwwwwwwwwwwwwwwwwwwwwwwwwwwwwwwwwwwwwwwwwwwwwwwwwwwwwwwwwwwwww",
"wwwwwwwwwwwwwwwwwwwwwwwwww1:wwwwwwwwwwwwwwwwwwwwwwwwwwwwwwwwwwww",
"wwwwwwwwwwwwwwwwwwwwwwwwww> O$$1wwwwwwwwwwwwwwwwwwwwwwwwwwwwwwww",
"wwwwwwwwwww1=wwq>,wwwwwwwww+ O$1wwwwwwwwwwwww<-9700wwww6*=wwwwww",
"wwwwwwwwwww> &6X 2wwwwwwwwww:1wwwwwwwwwwwwwww3  :554q$. .>wwwwww",
"wwwwwwwwwwww& .X6wwwwwwwwwwwwwwwwwwwwwwwwwwwww3X @774 O>qwwwwwww",
"wwwwwwwwwwwww@$qwwwwwwwwwwwwwwwwwwwwwwwwwwwwwww0$ X6..60wwwwwwww",
"wwwwwwwwwwwwwwwwwwwwwwwwwwwwwwwwwwwwwwwwwwwwwwwww6X  2wwwwwwwwww",
"wwwwwwwwwwwwwwwwwwwwwwwwwwwwwwwwwwwwwwwwwwwwwwwwwwq$@wwwwwwwwwww",
"wwwwwwwwwwwwwwwwwwwwwwwwwwwwwwwwwwwwwwwwwwwwwwwwwwwwwwwwwwwwwwww",
"wwwwwwwwwwwwwwwwwwwwwwwwwwwwwwwwwwwwwwwwwwwwwwwwwwwwwwwwwwwwwwww",
"wwwwwwwwwwwwwwwwgCvwwwwwwwwwwwwwwwwwwwwwwwwwwwwwwwwwwwwwwwwwwwww",
"wwwwwwwwwwkbwwF~)!kwwwwwwvMtittwwwwwwwwwwwwwwwwwwwwwwwwwwwwwwwww",
"wwwwwwwwwwv)NB)Phwwwwwwwwk)QBfddtmkwwwwwwwwwwwvbtwwwwwbkwwwwwwww",
"wwwwwwwwwwwB//NwwwwwwwwwwwaQ)YliB)vwwwwwwwwwwwk)TpwwwB)xwwwwwwww",
"wwwwwwwwwwwwFFwwwwwwwwwwwwwtG~)^)BwwwwwwwwwwwwwpY)RLE)Bwwwwwwwww",
"wwwwwwwwwwwwwwwwwwwwwwwwwwwwwwhLFwwwwwwwwwwwwwwwtJELTJwwwwwwwwww",
"wwwwwwwwwwwwwwwwwwwwwwwwwwwwwwwwwwwwwwwwwwwwwwwwwwwwwwwwwwwwwwww",
"wwwwwwwwwwwwwwwwwwwwwwwwwwwwwwwwwwwwwwwwwwwwwwwwwwwwwwwwwwwwwwww",
"wwwwwwwwwwwwwwwwwwwwwwwwwwwwwwwwwwwwwwwwwwwwwwwwwwwwwwwwwwwwwwww",
"wwwwwwwwwwwwwwwwwwwwwwwwwwwwwwwwwwwwwwwwwwwwwwwwwwwwwwwwwwwwwww*",
"wwwwwww1,wwwwwwwwww1,wwwwwwwwwwwwwwwwwwwwwwwwwwwwwwwww,-wwwwww@ ",
"wwwwwww> 6wq:,wwwww- 4wwww4=,wwwwwww1>wwwwwwwwwwwwwwww> $wwww& @",
"wwwwwwwqXX6X.1wwwwww+.9wO  .1wwwwwww> *wwwwwwwwwwwwwwww$ Ow9o %w",
"wwwwwwww6  X6wwwwwww9.@% X,wwwwwwwwww& Ow*@,wwwwwwwwwwwwo @o @ww",
"wwwwwwwww$$qwwwwwwwww6  @9wwwwwwwwwwww@ .  >wwwwwwwwwwwww@ .6www",
"wwwwwwwwwwwwwwwwwwwwww$$wwwwwwwwwwwwwww.  6wwwwwwwwwwwwww>@>wwww",
"wwwwwwwwwwwwwwwwwwwwwwwwwwwwwwwwwwwwwww&O,wwwwwwwwwwwwwwwwwwwwww",
"wwwwwwwwwwwwwwwwwwwwwwwwwwwwwwwwwwwwwwwwwwwwwwwwwwwwwwwwwwwwwwww",
"wwwwwwwwwwwwwwwwwwwwwwwwwwwwwwwwwwwwwwwwwwwwwwwwwwwwwwwwwwwwwwww",
"wwwwwwwwwwwwwwwwwwwwwwwwwwwwwwwwwwwwwwwwwwwwwwwwwwwwwwwwwwtbvwww",
"wwwwwwwwwwwwwwwwwwwwwwvkwwwwwwwwwwwwwwwwwwwwwwwkvwwwwwwwwpY/kwww",
"xMwwrbxwwwwvCgwwwwwwwa)Mwwwkmwwwwwwtbvwwwwwwwwwb_pwwwwwhI)Rpwwww",
"b)SpY)kwwwwk!/^FewwwtWEtwwwv/BwwwwpY)kwwwwwwwwwtTYtwuJ^_~Jtwwwww",
"wS_)YpwwwwwwwvY)EpwdI/pwwwwwB)LwsL/Ypwwwwwwwwwwwp/NB))Jhwwwwwwww",
"wwJJtwwwwwwwwwejE)~)~FwwwwwwwK)))~KrwwwwwwwwwwwwwF_)Buwwwwwwwwww",
"wwwwwwwwwwwwwwwwrJPswwwwwwwwwwL)CwwwwwwwwwwwwwwwwvBuwwwwwwwwwwww",
"wwwwwwwwwwwwwwwwwwwwwwwwwwwwwwwbkwwwwwwwwwwwwwwwwwwwwwwwwwwwwwww",
"wwwwwwwwwwwwwwwwwwwwwwwwwwwwwwwwwwwwwwwwwwwwwwwwwwwwwwwwwwwwwwww",
"wwwwwwwwwwwwwwwwwwwwwwwwwwwwwwwwwwwwwwwwwwwwwwwwwwwwwwwwwwwwwwww",
"wwwwwwwwwwwwwwwwwwwwwwwwwwwwwwwwwwwwwwwwwwwwwwwwwwwwwwwwwwwwwww=",
"wwwwww,>wwwwwwwwwww1,wwwwwwwwwwwwwwwwwwwwwwwwwwwwwwww2>wwwwwww* ",
"wwwwww: =w-2wwwwwww>.2wwwwwwq>,wwwww,>wwwwwwwwwwwq>>w> 6wwwwwO =",
"wwwwwww= + >wwwwwwww+.7wwww6o ,wwwww> -wwwwwwwww6X.1w0Xoqwww= +w",
"wwwwwwww@ &wwwwwwwww7.X0w0$ X6wwwwwww* @wwwwwww@.X6www6 @w0@.*ww",
"wwwwwwww1=wwwwwwwwwww1 X6X @qwwwwwwwwwo 3wwwww* +qwwwww@ ,X %www",
"wwwwwwwwwwwwwwwwwwwwww@  X6wwwwwwwwwww8..9www* *wwwwwww0..o6wwww",
"wwwwwwwwwwwwwwwwwwwwwww+ -wwwwwwwwwwwww6 oww@ *wwwwwwwww* *wwwww",
"wwwwwwwwwwwwwwwwwwwwwwww:1wwwwwwwwwwwwww@ &- @wwwwwwwwwww->wwwww",
"wwwwwwwwwwwwwwwwwwwwwwwwwwwwwwwwwwwwwwwww*  *wwwwwwwwwwwwwwwwwww",
"wwwwwwwwwwwwwwwwwwwwwwwwwwwwwwwwwwwwwwwwww%@wwwwwwwwwwwwwwwwwwww",
"wwwwwwwwwwwwwwwwwwwwwwwwwwwwwwwwwwwwwwwwwwwwwwwwwwwwwwwwwwwwwwww",
"wwwwwwwwwwwwwwwwwwwwwwwwwwwwwwwwwwwwwwwwwwwwwwwwwwwwwwwwwwwwwwww",
"wwwwwwwwwwwwwwwwwwwwwwwwwwwwwwwwwwwwwwwwwwwwwwwwwwwwwwwwwwwwwwww"
};
