/* XPM */
static char *_b7f0745772a4b929892aa3215abfa5bWDbN6F3EQvTvUd0t[] = {
/* columns rows colors chars-per-pixel */
"64 64 94 2 ",
"   c black",
".  c #080000",
"X  c #020902",
"o  c #041604",
"O  c #051A05",
"+  c #082E09",
"@  c #005400",
"#  c #005701",
"$  c #015701",
"%  c #015801",
"&  c #035D03",
"*  c #035E03",
"=  c #035E04",
"-  c #045E04",
";  c #036004",
":  c #056205",
">  c #066506",
",  c #076707",
"<  c #076708",
"1  c #076808",
"2  c #096A09",
"3  c #0B6F0B",
"4  c #0B6E0C",
"5  c #0B6F0C",
"6  c #0B700C",
"7  c #0C720D",
"8  c #0D740E",
"9  c #0E780F",
"0  c #0F7810",
"q  c #107C12",
"w  c #117E12",
"e  c #127F13",
"r  c #AF1B00",
"t  c #B72E09",
"y  c #D71A05",
"u  c #E90E03",
"i  c #F50601",
"p  c #FA0301",
"a  c #FE0101",
"s  c #FC0200",
"d  c #F80502",
"f  c #FB0603",
"g  c #ED1006",
"h  c #128214",
"j  c #138315",
"k  c #158517",
"l  c #158817",
"z  c #168918",
"x  c #178B19",
"c  c #178D19",
"v  c #188D1A",
"b  c #1A921C",
"n  c #1D9620",
"m  c #209824",
"M  c #269F2B",
"N  c #33AC3C",
"B  c #39B343",
"V  c #40BA4B",
"C  c #40BA4C",
"Z  c #42BD4F",
"A  c #46C153",
"S  c #4CC75B",
"D  c #4DC75B",
"F  c #52CD62",
"G  c #54CF65",
"H  c #57D369",
"J  c #58D46A",
"K  c #59D46B",
"L  c #5CD76E",
"P  c #5BD96F",
"I  c #5FDC73",
"U  c #62DE75",
"Y  c #66E27A",
"T  c #66E37C",
"R  c #68E47E",
"E  c #6AE781",
"W  c #6BE881",
"Q  c #6CE982",
"!  c #6CEB83",
"~  c #6DEA85",
"^  c #70ED87",
"/  c #72EE89",
"(  c #72EF8A",
")  c #73F08B",
"_  c #73F18B",
"`  c #74F28D",
"'  c #78F691",
"]  c #7AF793",
"[  c #7AF895",
"{  c #7DFA97",
"}  c #7EFB99",
"|  c #7FFB9A",
" . c #7DFC99",
".. c #7FFC9A",
/* pixels */
"b b b b b b b b b b b b b b b b b b b b b b b b b b b b b b b b b b b b b b b b b b b b b b b b b b b b b b b b b b b b b b b b ",
"b b b b b b b b b b b b b b b b b b b b b b b b b b b b b b b b b b b b b b b b b b b b b b b b b b b b b b b b b b b b b b b b ",
"b b b b b b b b b b b b b b b b b b b b b b b b b b b b b b b b b b b b b b b b b b b B K D b b b b b b b b b b b b b b b b b b ",
"b b b b b A F b b G A b b b b b b b b A F b b b b b b b b b b b b b b b b b A F b R { ..] A b b b b A F b b b m F D b b b b b b ",
"b b b b b D  .K U  .D b b b b b b b b D ..K n B I S b b b b b b b b b b b b D  .^ } ~ B b b b b b b D { K b N )  .A b b b b b b ",
"b b b b b b K  .} I b b b b b b b b b b K  .} } [ Z b b b b b b b b b b b b b ! } ! b b b b b b b b b H  .Y  .) N b b b b b b b ",
"b b b b b b b Y T b b b b b b b b b b b b W ~ V b b b b b b b b b b b b b b b Z R A b b b b b b b b b b K Y F n b b b b b b b b ",
"b b b b b b b b b b b b b b b b b b b b b b b b b b b b b b b b b b b b b b b b b b b b b b b b b b b b b b b b b b b b b b b b ",
"b b b b b b b b b b b b b b b b b b b b b b b b b b b b b b b b b b b b b b b b b b b b b b b b b b b b b b b b b b b b b b b b ",
"b b b b b b b b b b b b b b b b b b b b b b b b b b b b b b b b b b b b b b b b b b b b b b b b b b b b b b b b b b b b b b b b ",
"b b b b b b b b b b b b b b b b b b b b b b b b b b b b b b b b b b b b b b b b b b b b b b b b b b b b b b b b b b b b b b b b ",
"b b b b b b b b b b b b b b b b b b b b b b b b b b 8 4 b b b b b b b b b b b b b b b b b b b b b b b b b b b b b b b b b b b b ",
"b b b b b b b b b b b b b b b b b b b b b b b b b b 7 % # < > q b b b b b b b b b b b b b b b b b b b b b b b b b b b b b b b b ",
"b b b b b b b b b b b 9 4 b b c 7 8 b b b b b b b b b * # - < 8 b b b b b b b b b b b b b 8 4 v k v v b b b b h 2 3 b b b b b b ",
"b b b b b b b b b b b 7 # 1 j = # 9 b b b b b b b b b b 5 q b b b b b b b b b b b b b b b q # # 8 q h q v , # # # 7 b b b b b b ",
"b b b b b b b b b b b b 1 # # * j b b b b b b b b b b b b b b b b b b b b b b b b b b b b b e * % : l l q # - 7 v b b b b b b b ",
"b b b b b b b b b b b b b : > v b b b b b b b b b b b b b b b b o   O b b b b b b b b b b b b v > # * q # % e v b b b b b b b b ",
"b b b b b b b b b b b b b b b b b b b b b b b b b b b b b b b X     O b b b b b b b b b b b b b b h * % # q b b b b b b b b b b ",
"b b b b b b b b b b b b b b b b b b b b b b b b b b b b b b       + b b b b b b b b b b b b b b b b v : > b b b b b b b b b b b ",
"b b b b b b b b b b b b b b b b b b b b b b b b b b b b b b     + b b b b b b b b b b b b b b b b b b b b b b b b b b b b b b b ",
"b b b b b b b b b b b b b b b b b b b b b b b b b u s s s s     b s s s s y b b b b b b b b b b b b b b b b b b b b b b b b b b ",
"b b b b b b b b b b b b b b b b V P D b b b b b i s s s s s . . s s s s s y b b b b b b b b b b b b b b b b b b b b b b b b b b ",
"b b b b b b b b b b A F b b Y [  .] A b b b b b s s s s f s s s s s s s s s b b b b b b b b b b b b b b b b b b b b b b b b b b ",
"b b b b b b b b b b D  .H K  .! C b b b b b b s s s s s s s s g s s s s s s p b b b b b b b D F m b b b b b F A b b b b b b b b ",
"b b b b b b b b b b b K } } H b b b b b b b b s s s s s s s s s s s s s s s s b b b b b b b A .._ N b b b K  .D b b b b b b b b ",
"b b b b b b b b b b b b Y Y b b b b b b b b b s s s s s f s s s s s s s s s s t b b b b b b b N / ..` R `  .K b b b b b b b b b ",
"b b b b b b b b b b b b b b b b b b b b b b s s s s s s s s s s s s s s s s s s b b b b b b b b b ! ` ! _ R b b b b b b b b b b ",
"b b b b b b b b b b b b b b b b b b b b b b s s s s s s s s s s s s s s s s s s b b b b b b b b b b b b b b b b b b b b b b b b ",
"b b b b b b b b b b b b b b b b b b b b b b s s s s s s s s s s s s s s s s s s b b b b b b b b b b b b b b b b b b b b b b b b ",
"b b b b b b b b b b b b b b b b b b b b b b s s s s s s s s s s s s s s s s s s b b b b b b b b b b b b b b b b b b b b b b b b ",
"b b b b b b b b b b b b b b b b b b b b b b s s s s s s s s s s f p s s s s s s b b b b b b b b b b b b b b b b b b b b b b b 2 ",
"b b b b b b b 9 8 b b b b b b b b b b 9 8 b b s s s s s s s s s s s s s s s s b b b b b b b b b b b b b b b 8 4 b b b b b b : # ",
"b b b b b b b 3 # j b v 7 8 b b b b b 6 % q b p s s s s s s s s s s s s s s t b b b b b b b b b b b b b b b 7 # > b b b b > # : ",
"b b b b b b b v * : q = % 0 b b b b b b : % x b - s s s s s s s s s s s s r 2 b b b b b b b b b b b b b b b b > # - b v : # 1 b ",
"b b b b b b b b j # # = j b b b b b b b x # : , # - s s s s s s s s s s p 2 @ - b 2 > 8 b b b b b b b b b b b b * # : % # : b b ",
"b b b b b b b b b > > c b b b b b b b b b h # # : x b b b b b b b b b b b b : # % # # 8 b b b b b b b b b b b b b : # # q b b b ",
"b b b b b b b b b b b b b b b b b b b b b b > : b b b b b b b b b b b b b b b # % # q b b b b b b b b b b b b b b 8 > 8 b b b b ",
"b b b b b b b b b b b b b b b b b b b b b b b b b b b b b b b b b b b b b b b < - 8 b b b b b b b b b b b b b b b b b b b b b b ",
"b b b b b b b b b b b b b b b b b b b b b b b b b b b b b b b b b b b b b b b b b b b b b b b b b b b b b b b b b b b b b b b b ",
"b b b b b b b b b b b b b b b b b b b b b b b b b b b b b b b b b b b b b b b b b b b b b b b b b b b b b b b b b b b b b b b b ",
"b b b b b b b b b b b b b b b b b b b b b b b b b b b b b b b b b b b b b b b b b b b b b b b b b b b b b b b b b b m F D b b b ",
"b b b b b b b b b b b b b b b b b b b b b b D A b b b b b b b b b b b b b b b b b b b b b b b A D b b b b b b b b N ) ..A b b b ",
"D F b b n F D b b b b D I B n b b b b b b B  .H b b b A F b b b b b b m F D b b b b b b b b b F } N b b b b b V ! } / N b b b b ",
"G } I N ) } A b b b b A ] { } Y b b b b m ` ` m b b b D  .K b b b b N / ..A b b b b b b b b b m / / m b M R }  .[ R m b b b b b ",
"b U } } ( N b b b b b b b D / } / N b B ~  .B b b b b b K  .E b B ! ..) N b b b b b b b b b b b N ..K K  . .R C b b b b b b b b ",
"b b R E m b b b b b b b b b b Z ` } { } [ U b b b b b b b E  .} } [ R m b b b b b b b b b b b b b Y .. .K M b b b b b b b b b b ",
"b b b b b b b b b b b b b b b b m R ! B b b b b b b b b b b W  .K b b b b b b b b b b b b b b b b D K M b b b b b b b b b b b b ",
"b b b b b b b b b b b b b b b b b b b b b b b b b b b b b b b F A b b b b b b b b b b b b b b b b b b b b b b b b b b b b b b b ",
"b b b b b b b b b b b b b b b b b b b b b b b b b b b b b b b b b b b b b b b b b b b b b b b b b b b b b b b b b b b b b b b b ",
"b b b b b b b b b b b b b b b b b b b b b b b b b b b b b b b b b b b b b b b b b b b b b b b b b b b b b b b b b b b b b b b b ",
"b b b b b b b b b b b b b b b b b b b b b b b b b b b b b b b b b b b b b b b b b b b b b b b b b b b b b b b b b b b b b b b 3 ",
"b b b b b b 8 7 b b b b b b b b b b b 9 8 b b b b b b b b b b b b b b b b b b b b b b b b b b b b b b b b 9 8 b b b b b b b 2 # ",
"b b b b b b 5 % 3 b 3 9 b b b b b b b 6 % q b b b b b b v 6 8 b b b b b 9 6 b b b b b b b b b b b v 6 8 b 6 # j b b b b b : # 2 ",
"b b b b b b b 5 # = # 6 b b b b b b b b = % j b b b b j * # 9 b b b b b 8 % 2 b b b b b b b b b j * % 8 b v * * v b b b 2 # : b ",
"b b b b b b b b : # 2 b b b b b b b b b k % * v b c : # * j b b b b b b b 2 % : b b b b b b b : # * j b b b j # : b v : # 3 b b ",
"b b b b b b b b 9 3 b b b b b b b b b b b 9 # * j * # : v b b b b b b b b v = % q b b b b b 2 # : v b b b b b : # 8 * # : b b b ",
"b b b b b b b b b b b b b b b b b b b b b b : % # * j b b b b b b b b b b b x % % x b b b 1 # 1 b b b b b b b x % # * j b b b b ",
"b b b b b b b b b b b b b b b b b b b b b b b ; # 3 b b b b b b b b b b b b b j # * b b : # 2 b b b b b b b b b 2 # 2 b b b b b ",
"b b b b b b b b b b b b b b b b b b b b b b b b 3 7 b b b b b b b b b b b b b b : # 2 2 # : b b b b b b b b b b b 3 7 b b b b b ",
"b b b b b b b b b b b b b b b b b b b b b b b b b b b b b b b b b b b b b b b b b 2 # # 2 b b b b b b b b b b b b b b b b b b b ",
"b b b b b b b b b b b b b b b b b b b b b b b b b b b b b b b b b b b b b b b b b b > > b b b b b b b b b b b b b b b b b b b b ",
"b b b b b b b b b b b b b b b b b b b b b b b b b b b b b b b b b b b b b b b b b b b b b b b b b b b b b b b b b b b b b b b b ",
"b b b b b b b b b b b b b b b b b b b b b b b b b b b b b b b b b b b b b b b b b b b b b b b b b b b b b b b b b b b b b b b b ",
"b b b b b b b b b b b b b b b b b b b b b b b b b b b b b b b b b b b b b b b b b b b b b b b b b b b b b b b b b b b b b b b b "
};
