/* XPM */
static char *_23190d004fb49bddd5400c8cdc23605qRE1ScdwlaLRMtiH[] = {
/* columns rows colors chars-per-pixel */
"64 64 97 2 ",
"   c #010000",
".  c #0B0000",
"X  c #140000",
"o  c #1C0000",
"O  c #031103",
"+  c #240000",
"@  c #510001",
"#  c #5D0002",
"$  c #560E05",
"%  c #590904",
"&  c #5E0B09",
"*  c #481602",
"=  c #4D1B06",
"-  c #4F1E08",
";  c #551105",
":  c #511807",
">  c #5C160C",
",  c #6B0507",
"<  c #66070A",
"1  c #67090E",
"2  c #690A0E",
"3  c #730709",
"4  c #760D0B",
"5  c #7C0A0C",
"6  c #650F11",
"7  c #6A0A10",
"8  c #661214",
"9  c #611E14",
"0  c #6B1B1D",
"q  c #4E2207",
"w  c #4D2308",
"e  c #51220B",
"r  c #44350B",
"t  c #43380C",
"y  c #5D2E1A",
"u  c #6C1E20",
"i  c #6E2325",
"p  c #702427",
"a  c #712629",
"s  c #71282A",
"d  c #084F01",
"f  c #154A02",
"g  c #005600",
"h  c #025D03",
"j  c #3F420D",
"k  c #345912",
"l  c #056306",
"z  c #076808",
"x  c #0A6C0A",
"c  c #126C0D",
"v  c #0C720D",
"b  c #0E780F",
"n  c #0F7910",
"m  c #117F13",
"M  c #306214",
"N  c #277517",
"B  c #287116",
"V  c #247917",
"C  c #247D18",
"Z  c #584A25",
"A  c #800A0D",
"S  c #BF3B3E",
"D  c #B4433E",
"F  c #C33E42",
"G  c #CB4547",
"H  c #CF464A",
"J  c #D44A4E",
"K  c #138315",
"L  c #158817",
"P  c #1F871A",
"I  c #178B19",
"U  c #1B8D1B",
"Y  c #1A921C",
"T  c #218319",
"R  c #209824",
"E  c #33AC3C",
"W  c #39B343",
"Q  c #3EB84A",
"!  c #40BA4C",
"~  c #46C152",
"^  c #4CC75B",
"/  c #52CD63",
"(  c #56D067",
")  c #57D269",
"_  c #58D46A",
"`  c #5BD96F",
"'  c #5FDB73",
"]  c #63DE76",
"[  c #66E27B",
"{  c #68E57E",
"}  c #6AE782",
"|  c #6CE983",
" . c #70ED87",
".. c #73F18C",
"X. c #79F593",
"o. c #7CF996",
"O. c #7FFC9A",
/* pixels */
"Y Y Y Y Y Y Y Y Y Y Y Y Y Y Y Y Y Y Y Y Y Y Y Y Y Y Y Y Y Y Y Y Y Y Y Y Y Y Y Y Y Y Y Y Y Y Y Y Y Y Y Y Y Y Y Y Y Y Y Y Y Y Y Y ",
"Y Y Y Y Y Y Y Y Y Y Y Y Y Y Y Y Y Y Y Y Y Y Y Y Y Y Y Y Y Y Y Y Y Y Y Y Y Y Y Y Y Y Y Y Y Y Y Y Y Y Y Y Y Y Y Y Y Y Y Y Y Y Y Y ",
"Y Y Y Y Y Y Y Y Y Y Y Y Y Y Y Y Y Y Y Y Y Y Y Y Y Y Y Y Y Y Y Y Y Y Y Y Y Y Y Y Y Y Y W _ ^ Y Y Y Y Y Y Y Y Y Y Y Y Y Y Y Y Y Y ",
"Y Y Y Y Y ~ ( Y Y ( ~ Y Y Y Y Y Y Y Y ~ ( Y Y Y Y Y Y Y Y Y Y Y Y Y Y Y Y Y ~ / Y { o.O.X.~ Y Y Y Y ~ / Y Y Y R / ^ Y Y Y Y Y Y ",
"Y Y Y Y Y ^ O._ ' o.^ Y Y Y Y Y Y Y Y ^ O._ Y ! ` ^ Y Y Y Y Y Y Y Y Y Y Y Y ^ o. .O.| W Y Y Y Y Y Y ^ O._ Y E  .O.~ Y Y Y Y Y Y ",
"Y Y Y Y Y Y _ O.O.' Y Y Y Y Y Y Y Y Y Y _ O.O.O.X.~ Y Y Y Y Y Y Y Y Y Y Y Y Y | O.} Y Y Y Y Y Y Y Y Y _ o.[ O...E Y Y Y Y Y Y Y ",
"Y Y Y Y Y Y Y [ [ Y Y Y Y Y Y Y Y Y Y Y Y } | Q Y Y Y Y Y Y Y Y Y Y Y Y Y Y Y ~ { ~ Y Y Y Y Y Y Y Y Y Y _ [ / R Y Y Y Y Y Y Y Y ",
"Y Y Y Y Y Y Y Y Y Y Y Y Y Y Y Y Y Y Y Y Y Y Y Y Y Y Y Y Y Y Y Y Y Y Y Y Y Y Y Y Y Y Y Y Y Y Y Y Y Y Y Y Y Y Y Y Y Y Y Y Y Y Y Y ",
"Y Y Y Y Y Y Y Y Y Y Y Y Y Y Y Y Y Y Y Y Y Y Y Y Y Y Y Y Y Y Y Y Y Y Y Y Y Y Y Y Y Y Y Y Y Y Y Y Y Y Y Y Y Y Y Y Y Y Y Y Y Y Y Y ",
"Y Y Y Y Y Y Y Y Y Y Y Y Y Y Y Y Y Y Y Y Y Y Y Y Y Y Y Y Y Y Y Y Y Y Y Y Y Y Y Y Y Y Y Y Y Y Y Y Y Y Y Y Y Y Y Y Y Y Y Y Y Y Y Y ",
"Y Y Y Y Y Y Y Y Y Y Y Y Y Y Y Y Y Y Y Y Y Y Y Y Y Y Y Y Y Y Y Y Y Y Y Y Y Y Y Y Y Y Y Y Y Y Y Y Y Y Y Y Y Y Y Y Y Y Y Y Y Y Y Y ",
"Y Y Y Y Y Y Y Y Y Y Y Y Y Y Y Y Y Y Y Y Y Y Y Y Y Y b v Y Y Y Y Y Y Y Y Y Y Y Y Y Y Y Y Y Y Y Y Y Y Y Y Y Y Y Y Y Y Y Y Y Y Y Y ",
"Y Y Y Y Y Y Y Y Y Y Y Y Y Y Y Y Y Y Y Y Y Y Y Y Y Y v g h l z n Y Y Y Y Y Y Y Y Y Y Y Y Y Y Y Y Y Y Y Y Y Y Y Y Y Y Y Y Y Y Y Y ",
"Y Y Y Y Y Y Y Y Y Y Y b v Y Y Y v v Y Y Y Y Y Y Y Y Y l g h l n Y Y Y Y Y Y Y Y Y Y Y Y Y K v L L I Y Y Y Y Y K x v Y Y Y Y Y Y ",
"Y Y Y Y Y Y Y Y Y Y Y v g z K l g b Y Y Y Y Y Y Y Y Y Y x n Y Y Y Y Y Y Y Y Y Y Y Y Y Y Y b h h v K b K I z g g h v Y Y Y Y Y Y ",
"Y Y Y Y Y Y Y Y Y Y Y Y z g g h K Y Y Y Y Y Y Y Y Y Y Y Y Y Y Y Y Y Y Y Y Y Y Y Y Y Y Y Y Y K h g l L L m g h v Y Y Y Y Y Y Y Y ",
"Y Y Y Y Y Y Y Y Y Y Y Y Y l l I Y Y Y Y Y Y Y Y Y Y Y Y Y U Y Y U Y Y Y Y Y Y Y Y Y Y Y Y Y Y U l g h K h g K I Y Y Y Y Y Y Y Y ",
"Y Y Y Y Y Y Y Y Y Y Y Y Y Y Y Y Y Y Y Y Y Y Y Y Y Y U Y Y Y U Y Y Y U Y U U Y U U Y Y Y Y Y Y Y Y K h g g n Y Y Y Y Y Y Y Y Y Y ",
"Y Y Y Y Y Y Y Y Y Y Y Y Y Y Y Y Y Y Y Y Y Y Y U M # # # # q # # e # # # # # U U U Y Y Y Y Y Y Y Y Y U l l Y Y Y Y Y Y Y Y Y Y Y ",
"Y Y Y Y Y Y Y Y Y Y Y Y Y Y Y Y Y Y Y # # # # # # # # # # # # # # # # # # # # - U U U Y Y Y Y Y Y Y Y Y Y Y Y Y Y Y Y Y Y Y Y Y ",
"Y Y Y Y Y Y Y Y Y Y Y Y Y Y U Y Y Y # # # # # # # # # # # # # # 6 p s p i s i # T T Y Y Y Y Y Y Y Y Y Y Y Y Y Y Y Y Y Y Y Y Y Y ",
"Y Y Y Y Y Y Y Y Y Y Y Y Y Y Y Y Q # # # # # # # # # , 5 5 # # # 8 s s s s s u # C T T Y Y Y Y Y Y Y Y Y Y Y Y Y Y Y Y Y Y Y Y Y ",
"Y Y Y Y Y Y Y Y Y Y ~ / Y Y ] # # # p s # # # # # # , 5 A # # # # # # # # # # # # V T Y Y Y Y Y Y Y Y Y Y Y Y Y Y Y Y Y Y Y Y Y ",
"Y Y Y Y Y Y Y Y Y Y ^ O.) / X.# # # s s # # # # # # < # # # # # # # #     o # # # < T U Y Y ^ ( R Y Y Y Y Y / ~ Y Y Y Y Y Y Y Y ",
"Y Y Y Y Y Y Y Y Y Y Y ) X.X.Z # # # s i # #     # # # # # # # # # # #       < 2 < # # P U Y ! O. .E Y Y Y _ o.^ Y Y Y Y Y Y Y Y ",
"Y Y Y Y Y Y Y Y Y Y Y Y ` y < # # # # # # #     O # # # # # # # # # #     1 2 2 < # # e U U Y E ..O...| ..O._ Y Y Y Y Y Y Y Y Y ",
"Y Y Y Y Y Y Y Y Y Y Y I m < # # # # # # # #     # # # # # # # # # # # .   2 2 < # # # # N U Y U R { ..} ..{ Y Y Y Y Y Y Y Y Y Y ",
"Y Y Y Y Y Y Y Y Y Y I q # # # # # # # # 2 2 2   # # 0 s i # # # < # #     2 2 # < # # # # U Y Y Y Y Y Y Y Y Y Y Y Y Y Y Y Y Y Y ",
"Y Y Y Y Y Y Y Y Y I # # # # # # # # # # 2 2 2   # i s s s # # # # # #     X # # # # # # # U U Y Y Y Y Y Y Y Y Y Y Y Y Y Y Y Y Y ",
"Y Y Y Y Y Y Y Y Y U # # # # # # # # # # # # # # # i s 0 # # # # # # #     # # # # j # # # N U U Y Y Y Y Y Y Y Y Y Y Y Y Y Y Y Y ",
"Y Y Y Y Y Y Y Y U T V # # # # < # # # # # 3 5 A 3 # # # # u i # # # # # # # # # # # # # # # U U Y Y Y Y Y Y Y Y Y Y Y Y Y Y Y v ",
"Y Y Y Y Y Y Y b c C # # # # 3 5 # # # # # 3 A 5 5 # # # 0 s s # # # # # 3 5 4 # # # # # # # # U U Y Y Y Y Y b v Y Y Y Y Y Y l g ",
"Y Y Y Y Y Y Y x d = # # # # 5 A A 3 # # # # # 4 3 # # 0 s s a # # # # # 5 5 5 # # # # # # # # U U Y Y U Y Y v g z Y Y Y Y z g l ",
"Y Y Y Y Y Y Y I f # # # # # # 5 A 3 # # # # # # # # # i s 0 # # # # # # 5 5 # # # # # # # # # T T Y Y Y U Y Y l g h Y U l g l Y ",
"Y Y Y Y Y Y Y # # # # # G G # # # # # # # # # # # # # # # # # # # # # # # # # # # # * # # # # C T U U Y Y Y Y Y h g l h g l Y Y ",
"Y Y Y U Y Y U # # # # # J H # # # # #     . # # # # # # # # # # # # # # # # # # # .   # # # # r T T U Y Y Y Y Y Y l g g K Y Y Y ",
"Y Y Y Y Y Y U # # # # # # # # # # #         X # # # # # # # # # # # # # # +           # # # # # t T U U Y Y Y Y Y v l v Y Y Y Y ",
"Y Y Y Y Y # # # # # # # # # # # # #           X @ # # # # # # # # # # # +           o # # # # # # # T U Y U Y Y Y Y Y Y Y Y Y Y ",
"Y Y Y Y - # # # # # # # # # # # # #   O             . X # # # # o . . .           # # # # # # # # # B U Y Y Y Y Y Y Y Y Y Y Y Y ",
"Y Y Y Y # # # # # # # # # 5 5 5 # < S F 3 X                                   . # # # # # # # # < # # U U Y Y Y Y Y Y Y Y Y Y Y ",
"Y Y Y # # i s 0 # # # # # 5 A 4 q # J J A 4 # # # X .               .   . # # # # # # # # # # # # # # N U Y Y Y Y Y R / ^ Y Y Y ",
"Y Y - # # a s s i # # # # # # # # # G G 5 5 # # # # # # # # # # # # # # 2 2 # # # # # # # # # # # # # # U U Y Y Y E ..O.~ Y Y Y ",
"^ > # # # # s s s 0 # # # # # # # # # # # # # # # # # # # # D J J H # # 2 7 2 # # # # # # # # # # # # # V Y Y ! } O...E Y Y Y Y ",
"/ 9 # # & # # 0 a u # # # # # # # # # # # # # # # # # # # # F J J H # # < 2 2 2 # # # # # # # # # # # # < { o.O.o.{ R Y Y Y Y Y ",
"Y ' & # # # # # # # # # # # # # # # # # # # # # # # # # # # # # < # # # # # 2 2 # # # # # 3 5 A 3 # # # # O.{ ! Y Y Y Y Y Y Y Y ",
"Y Y } { R Y $ % # # # # # # # # # # # # # # # # # # # % # # # # # # # # # # 2 2 # # # # # 3 5 5 5 < # # # w Y Y Y Y Y Y Y Y Y Y ",
"Y Y Y Y Y Y Y Y Y w # # % # # % % # # & % % % # # # # # # # # # # # # # # # # # # # # # # # # # # # # # # # # # Y Y Y Y Y Y Y Y ",
"Y Y Y Y Y Y Y Y Y Y Y Y Y Y Y Y Y Y U Y Y U Y w # # # % # $ # # # # # # # # # # # # # # # # # q # # # # # # # # Y Y Y Y Y Y Y Y ",
"Y Y Y Y Y Y Y Y Y Y Y Y Y Y Y Y Y Y Y Y Y Y Y Y Y U Y Y Y Y Y % < $ ; ; ; : k V T U T T T T T T U U U Y Y Y Y Y Y Y Y Y Y Y Y Y ",
"Y Y Y Y Y Y Y Y Y Y Y Y Y Y Y Y Y Y Y Y Y Y Y Y Y Y Y Y Y Y Y Y U Y Y Y Y U Y Y Y Y Y U Y U Y U U Y Y Y Y Y Y Y Y Y Y Y Y Y Y Y ",
"Y Y Y Y Y Y Y Y Y Y Y Y Y Y Y Y Y Y Y Y Y Y Y Y Y Y Y Y Y Y Y Y Y Y Y Y Y Y Y Y Y Y U Y Y Y Y U Y Y U Y Y Y Y Y Y Y Y Y Y Y Y x ",
"Y Y Y Y Y Y n v Y Y Y Y Y Y Y Y Y Y Y b v Y Y Y Y Y Y Y Y Y Y Y Y Y Y Y Y Y Y Y Y Y Y Y Y Y Y Y Y Y Y Y Y b v Y Y Y Y Y Y Y x g ",
"Y Y Y Y Y Y v g x Y v b Y Y Y Y Y Y Y v g n Y Y Y Y Y Y U v v Y Y Y Y Y m x Y Y Y Y Y Y Y Y Y Y Y U v v Y v g K Y Y Y Y Y l g x ",
"Y Y Y Y Y Y Y x g h g v Y Y Y Y Y Y Y Y l g K Y Y Y Y K h g n Y Y Y Y Y v g z Y Y Y Y Y Y Y Y Y K h g v Y I l h Y Y Y Y x g l Y ",
"Y Y Y Y Y Y Y Y l g x Y Y Y Y Y Y Y Y Y L g h Y Y I l g h K Y Y Y Y Y Y Y z g l Y Y Y Y Y Y Y l g h K Y Y Y K g l Y U l g x Y Y ",
"Y Y Y Y Y Y Y Y b v Y Y Y Y Y Y Y Y Y Y Y b g h K h g l I Y Y Y Y Y Y Y Y Y h g K Y Y Y Y Y z g l U Y Y Y Y Y l g v h g l Y Y Y ",
"Y Y Y Y Y Y Y Y Y Y Y Y Y Y Y Y Y Y Y Y Y Y l g g h L Y Y Y Y Y Y Y Y Y Y Y I h g I Y Y Y z g z Y Y Y Y Y Y Y Y g g h K Y Y Y Y ",
"Y Y Y Y Y Y Y Y Y Y Y Y Y Y Y Y Y Y Y Y Y Y Y l g v Y Y Y Y Y Y Y Y Y Y Y Y Y m g l Y Y l g z Y Y Y Y Y Y Y Y Y x g z Y Y Y Y Y ",
"Y Y Y Y Y Y Y Y Y Y Y Y Y Y Y Y Y Y Y Y Y Y Y Y v b Y Y Y Y Y Y Y Y Y Y Y Y Y Y l g z x g l Y Y Y Y Y Y Y Y Y Y Y v v Y Y Y Y Y ",
"Y Y Y Y Y Y Y Y Y Y Y Y Y Y Y Y Y Y Y Y Y Y Y Y Y Y Y Y Y Y Y Y Y Y Y Y Y Y Y Y Y x g g x Y Y Y Y Y Y Y Y Y Y Y Y Y Y Y Y Y Y Y ",
"Y Y Y Y Y Y Y Y Y Y Y Y Y Y Y Y Y Y Y Y Y Y Y Y Y Y Y Y Y Y Y Y Y Y Y Y Y Y Y Y Y Y z z Y Y Y Y Y Y Y Y Y Y Y Y Y Y Y Y Y Y Y Y ",
"Y Y Y Y Y Y Y Y Y Y Y Y Y Y Y Y Y Y Y Y Y Y Y Y Y Y Y Y Y Y Y Y Y Y Y Y Y Y Y Y Y Y Y Y Y Y Y Y Y Y Y Y Y Y Y Y Y Y Y Y Y Y Y Y ",
"Y Y Y Y Y Y Y Y Y Y Y Y Y Y Y Y Y Y Y Y Y Y Y Y Y Y Y Y Y Y Y Y Y Y Y Y Y Y Y Y Y Y Y Y Y Y Y Y Y Y Y Y Y Y Y Y Y Y Y Y Y Y Y Y ",
"Y Y Y Y Y Y Y Y Y Y Y Y Y Y Y Y Y Y Y Y Y Y Y Y Y Y Y Y Y Y Y Y Y Y Y Y Y Y Y Y Y Y Y Y Y Y Y Y Y Y Y Y Y Y Y Y Y Y Y Y Y Y Y Y "
};
